<?xml version="1.0" encoding="utf-8"?>
<svg xmlns="http://www.w3.org/2000/svg" xmlns:xlink="http://www.w3.org/1999/xlink" width="600" height="400" viewBox="0 0 2400 1600">
<defs>
  <clipPath id="clip020">
    <rect x="0" y="0" width="2400" height="1600"/>
  </clipPath>
</defs>
<path clip-path="url(#clip020)" d="M0 1600 L2400 1600 L2400 0 L0 0  Z" fill="#ffffff" fill-rule="evenodd" fill-opacity="1"/>
<defs>
  <clipPath id="clip021">
    <rect x="480" y="0" width="1681" height="1600"/>
  </clipPath>
</defs>
<path clip-path="url(#clip020)" d="M265.445 1423.18 L2352.76 1423.18 L2352.76 123.472 L265.445 123.472  Z" fill="#ffffff" fill-rule="evenodd" fill-opacity="1"/>
<defs>
  <clipPath id="clip022">
    <rect x="265" y="123" width="2088" height="1301"/>
  </clipPath>
</defs>
<polyline clip-path="url(#clip022)" style="stroke:#000000; stroke-linecap:round; stroke-linejoin:round; stroke-width:2; stroke-opacity:0.1; fill:none" points="323.732,1423.18 323.732,123.472 "/>
<polyline clip-path="url(#clip022)" style="stroke:#000000; stroke-linecap:round; stroke-linejoin:round; stroke-width:2; stroke-opacity:0.1; fill:none" points="717.721,1423.18 717.721,123.472 "/>
<polyline clip-path="url(#clip022)" style="stroke:#000000; stroke-linecap:round; stroke-linejoin:round; stroke-width:2; stroke-opacity:0.1; fill:none" points="1111.71,1423.18 1111.71,123.472 "/>
<polyline clip-path="url(#clip022)" style="stroke:#000000; stroke-linecap:round; stroke-linejoin:round; stroke-width:2; stroke-opacity:0.1; fill:none" points="1505.7,1423.18 1505.7,123.472 "/>
<polyline clip-path="url(#clip022)" style="stroke:#000000; stroke-linecap:round; stroke-linejoin:round; stroke-width:2; stroke-opacity:0.1; fill:none" points="1899.69,1423.18 1899.69,123.472 "/>
<polyline clip-path="url(#clip022)" style="stroke:#000000; stroke-linecap:round; stroke-linejoin:round; stroke-width:2; stroke-opacity:0.1; fill:none" points="2293.68,1423.18 2293.68,123.472 "/>
<polyline clip-path="url(#clip022)" style="stroke:#000000; stroke-linecap:round; stroke-linejoin:round; stroke-width:2; stroke-opacity:0.1; fill:none" points="265.445,1394.18 2352.76,1394.18 "/>
<polyline clip-path="url(#clip022)" style="stroke:#000000; stroke-linecap:round; stroke-linejoin:round; stroke-width:2; stroke-opacity:0.1; fill:none" points="265.445,1202.28 2352.76,1202.28 "/>
<polyline clip-path="url(#clip022)" style="stroke:#000000; stroke-linecap:round; stroke-linejoin:round; stroke-width:2; stroke-opacity:0.1; fill:none" points="265.445,1010.37 2352.76,1010.37 "/>
<polyline clip-path="url(#clip022)" style="stroke:#000000; stroke-linecap:round; stroke-linejoin:round; stroke-width:2; stroke-opacity:0.1; fill:none" points="265.445,818.465 2352.76,818.465 "/>
<polyline clip-path="url(#clip022)" style="stroke:#000000; stroke-linecap:round; stroke-linejoin:round; stroke-width:2; stroke-opacity:0.1; fill:none" points="265.445,626.559 2352.76,626.559 "/>
<polyline clip-path="url(#clip022)" style="stroke:#000000; stroke-linecap:round; stroke-linejoin:round; stroke-width:2; stroke-opacity:0.1; fill:none" points="265.445,434.652 2352.76,434.652 "/>
<polyline clip-path="url(#clip022)" style="stroke:#000000; stroke-linecap:round; stroke-linejoin:round; stroke-width:2; stroke-opacity:0.1; fill:none" points="265.445,242.746 2352.76,242.746 "/>
<polyline clip-path="url(#clip020)" style="stroke:#000000; stroke-linecap:round; stroke-linejoin:round; stroke-width:4; stroke-opacity:1; fill:none" points="265.445,1423.18 2352.76,1423.18 "/>
<polyline clip-path="url(#clip020)" style="stroke:#000000; stroke-linecap:round; stroke-linejoin:round; stroke-width:4; stroke-opacity:1; fill:none" points="323.732,1423.18 323.732,1404.28 "/>
<polyline clip-path="url(#clip020)" style="stroke:#000000; stroke-linecap:round; stroke-linejoin:round; stroke-width:4; stroke-opacity:1; fill:none" points="717.721,1423.18 717.721,1404.28 "/>
<polyline clip-path="url(#clip020)" style="stroke:#000000; stroke-linecap:round; stroke-linejoin:round; stroke-width:4; stroke-opacity:1; fill:none" points="1111.71,1423.18 1111.71,1404.28 "/>
<polyline clip-path="url(#clip020)" style="stroke:#000000; stroke-linecap:round; stroke-linejoin:round; stroke-width:4; stroke-opacity:1; fill:none" points="1505.7,1423.18 1505.7,1404.28 "/>
<polyline clip-path="url(#clip020)" style="stroke:#000000; stroke-linecap:round; stroke-linejoin:round; stroke-width:4; stroke-opacity:1; fill:none" points="1899.69,1423.18 1899.69,1404.28 "/>
<polyline clip-path="url(#clip020)" style="stroke:#000000; stroke-linecap:round; stroke-linejoin:round; stroke-width:4; stroke-opacity:1; fill:none" points="2293.68,1423.18 2293.68,1404.28 "/>
<path clip-path="url(#clip020)" d="M323.732 1454.1 Q320.12 1454.1 318.292 1457.66 Q316.486 1461.2 316.486 1468.33 Q316.486 1475.44 318.292 1479.01 Q320.12 1482.55 323.732 1482.55 Q327.366 1482.55 329.171 1479.01 Q331 1475.44 331 1468.33 Q331 1461.2 329.171 1457.66 Q327.366 1454.1 323.732 1454.1 M323.732 1450.39 Q329.542 1450.39 332.597 1455 Q335.676 1459.58 335.676 1468.33 Q335.676 1477.06 332.597 1481.67 Q329.542 1486.25 323.732 1486.25 Q317.921 1486.25 314.843 1481.67 Q311.787 1477.06 311.787 1468.33 Q311.787 1459.58 314.843 1455 Q317.921 1450.39 323.732 1450.39 Z" fill="#000000" fill-rule="nonzero" fill-opacity="1" /><path clip-path="url(#clip020)" d="M707.999 1451.02 L726.356 1451.02 L726.356 1454.96 L712.282 1454.96 L712.282 1463.43 Q713.3 1463.08 714.319 1462.92 Q715.337 1462.73 716.356 1462.73 Q722.143 1462.73 725.522 1465.9 Q728.902 1469.08 728.902 1474.49 Q728.902 1480.07 725.43 1483.17 Q721.958 1486.25 715.638 1486.25 Q713.462 1486.25 711.194 1485.88 Q708.948 1485.51 706.541 1484.77 L706.541 1480.07 Q708.624 1481.2 710.847 1481.76 Q713.069 1482.32 715.546 1482.32 Q719.55 1482.32 721.888 1480.21 Q724.226 1478.1 724.226 1474.49 Q724.226 1470.88 721.888 1468.77 Q719.55 1466.67 715.546 1466.67 Q713.671 1466.67 711.796 1467.08 Q709.944 1467.5 707.999 1468.38 L707.999 1451.02 Z" fill="#000000" fill-rule="nonzero" fill-opacity="1" /><path clip-path="url(#clip020)" d="M1086.4 1481.64 L1094.04 1481.64 L1094.04 1455.28 L1085.73 1456.95 L1085.73 1452.69 L1093.99 1451.02 L1098.67 1451.02 L1098.67 1481.64 L1106.31 1481.64 L1106.31 1485.58 L1086.4 1485.58 L1086.4 1481.64 Z" fill="#000000" fill-rule="nonzero" fill-opacity="1" /><path clip-path="url(#clip020)" d="M1125.75 1454.1 Q1122.14 1454.1 1120.31 1457.66 Q1118.51 1461.2 1118.51 1468.33 Q1118.51 1475.44 1120.31 1479.01 Q1122.14 1482.55 1125.75 1482.55 Q1129.38 1482.55 1131.19 1479.01 Q1133.02 1475.44 1133.02 1468.33 Q1133.02 1461.2 1131.19 1457.66 Q1129.38 1454.1 1125.75 1454.1 M1125.75 1450.39 Q1131.56 1450.39 1134.62 1455 Q1137.7 1459.58 1137.7 1468.33 Q1137.7 1477.06 1134.62 1481.67 Q1131.56 1486.25 1125.75 1486.25 Q1119.94 1486.25 1116.86 1481.67 Q1113.81 1477.06 1113.81 1468.33 Q1113.81 1459.58 1116.86 1455 Q1119.94 1450.39 1125.75 1450.39 Z" fill="#000000" fill-rule="nonzero" fill-opacity="1" /><path clip-path="url(#clip020)" d="M1480.89 1481.64 L1488.53 1481.64 L1488.53 1455.28 L1480.22 1456.95 L1480.22 1452.69 L1488.48 1451.02 L1493.16 1451.02 L1493.16 1481.64 L1500.79 1481.64 L1500.79 1485.58 L1480.89 1485.58 L1480.89 1481.64 Z" fill="#000000" fill-rule="nonzero" fill-opacity="1" /><path clip-path="url(#clip020)" d="M1510.28 1451.02 L1528.64 1451.02 L1528.64 1454.96 L1514.57 1454.96 L1514.57 1463.43 Q1515.59 1463.08 1516.6 1462.92 Q1517.62 1462.73 1518.64 1462.73 Q1524.43 1462.73 1527.81 1465.9 Q1531.19 1469.08 1531.19 1474.49 Q1531.19 1480.07 1527.72 1483.17 Q1524.24 1486.25 1517.92 1486.25 Q1515.75 1486.25 1513.48 1485.88 Q1511.23 1485.51 1508.83 1484.77 L1508.83 1480.07 Q1510.91 1481.2 1513.13 1481.76 Q1515.35 1482.32 1517.83 1482.32 Q1521.84 1482.32 1524.17 1480.21 Q1526.51 1478.1 1526.51 1474.49 Q1526.51 1470.88 1524.17 1468.77 Q1521.84 1466.67 1517.83 1466.67 Q1515.96 1466.67 1514.08 1467.08 Q1512.23 1467.5 1510.28 1468.38 L1510.28 1451.02 Z" fill="#000000" fill-rule="nonzero" fill-opacity="1" /><path clip-path="url(#clip020)" d="M1878.46 1481.64 L1894.78 1481.64 L1894.78 1485.58 L1872.84 1485.58 L1872.84 1481.64 Q1875.5 1478.89 1880.08 1474.26 Q1884.69 1469.61 1885.87 1468.27 Q1888.12 1465.74 1889 1464.01 Q1889.9 1462.25 1889.9 1460.56 Q1889.9 1457.8 1887.96 1456.07 Q1886.03 1454.33 1882.93 1454.33 Q1880.73 1454.33 1878.28 1455.09 Q1875.85 1455.86 1873.07 1457.41 L1873.07 1452.69 Q1875.89 1451.55 1878.35 1450.97 Q1880.8 1450.39 1882.84 1450.39 Q1888.21 1450.39 1891.4 1453.08 Q1894.6 1455.77 1894.6 1460.26 Q1894.6 1462.39 1893.79 1464.31 Q1893 1466.2 1890.89 1468.8 Q1890.32 1469.47 1887.21 1472.69 Q1884.11 1475.88 1878.46 1481.64 Z" fill="#000000" fill-rule="nonzero" fill-opacity="1" /><path clip-path="url(#clip020)" d="M1914.6 1454.1 Q1910.99 1454.1 1909.16 1457.66 Q1907.35 1461.2 1907.35 1468.33 Q1907.35 1475.44 1909.16 1479.01 Q1910.99 1482.55 1914.6 1482.55 Q1918.23 1482.55 1920.04 1479.01 Q1921.87 1475.44 1921.87 1468.33 Q1921.87 1461.2 1920.04 1457.66 Q1918.23 1454.1 1914.6 1454.1 M1914.6 1450.39 Q1920.41 1450.39 1923.46 1455 Q1926.54 1459.58 1926.54 1468.33 Q1926.54 1477.06 1923.46 1481.67 Q1920.41 1486.25 1914.6 1486.25 Q1908.79 1486.25 1905.71 1481.67 Q1902.65 1477.06 1902.65 1468.33 Q1902.65 1459.58 1905.71 1455 Q1908.79 1450.39 1914.6 1450.39 Z" fill="#000000" fill-rule="nonzero" fill-opacity="1" /><path clip-path="url(#clip020)" d="M2272.95 1481.64 L2289.27 1481.64 L2289.27 1485.58 L2267.33 1485.58 L2267.33 1481.64 Q2269.99 1478.89 2274.57 1474.26 Q2279.18 1469.61 2280.36 1468.27 Q2282.6 1465.74 2283.48 1464.01 Q2284.39 1462.25 2284.39 1460.56 Q2284.39 1457.8 2282.44 1456.07 Q2280.52 1454.33 2277.42 1454.33 Q2275.22 1454.33 2272.77 1455.09 Q2270.34 1455.86 2267.56 1457.41 L2267.56 1452.69 Q2270.38 1451.55 2272.84 1450.97 Q2275.29 1450.39 2277.33 1450.39 Q2282.7 1450.39 2285.89 1453.08 Q2289.09 1455.77 2289.09 1460.26 Q2289.09 1462.39 2288.28 1464.31 Q2287.49 1466.2 2285.38 1468.8 Q2284.8 1469.47 2281.7 1472.69 Q2278.6 1475.88 2272.95 1481.64 Z" fill="#000000" fill-rule="nonzero" fill-opacity="1" /><path clip-path="url(#clip020)" d="M2299.13 1451.02 L2317.49 1451.02 L2317.49 1454.96 L2303.41 1454.96 L2303.41 1463.43 Q2304.43 1463.08 2305.45 1462.92 Q2306.47 1462.73 2307.49 1462.73 Q2313.28 1462.73 2316.66 1465.9 Q2320.04 1469.08 2320.04 1474.49 Q2320.04 1480.07 2316.56 1483.17 Q2313.09 1486.25 2306.77 1486.25 Q2304.6 1486.25 2302.33 1485.88 Q2300.08 1485.51 2297.67 1484.77 L2297.67 1480.07 Q2299.76 1481.2 2301.98 1481.76 Q2304.2 1482.32 2306.68 1482.32 Q2310.68 1482.32 2313.02 1480.21 Q2315.36 1478.1 2315.36 1474.49 Q2315.36 1470.88 2313.02 1468.77 Q2310.68 1466.67 2306.68 1466.67 Q2304.8 1466.67 2302.93 1467.08 Q2301.08 1467.5 2299.13 1468.38 L2299.13 1451.02 Z" fill="#000000" fill-rule="nonzero" fill-opacity="1" /><path clip-path="url(#clip020)" d="M1129.83 1525.81 L1129.83 1562.76 L1137.59 1562.76 Q1147.43 1562.76 1151.98 1558.3 Q1156.56 1553.85 1156.56 1544.24 Q1156.56 1534.69 1151.98 1530.26 Q1147.43 1525.81 1137.59 1525.81 L1129.83 1525.81 M1123.4 1520.52 L1136.61 1520.52 Q1150.42 1520.52 1156.88 1526.28 Q1163.34 1532.01 1163.34 1544.24 Q1163.34 1556.52 1156.85 1562.28 Q1150.36 1568.04 1136.61 1568.04 L1123.4 1568.04 L1123.4 1520.52 Z" fill="#000000" fill-rule="nonzero" fill-opacity="1" /><path clip-path="url(#clip020)" d="M1173.34 1532.4 L1179.19 1532.4 L1179.19 1568.04 L1173.34 1568.04 L1173.34 1532.4 M1173.34 1518.52 L1179.19 1518.52 L1179.19 1525.93 L1173.34 1525.93 L1173.34 1518.52 Z" fill="#000000" fill-rule="nonzero" fill-opacity="1" /><path clip-path="url(#clip020)" d="M1214.17 1533.45 L1214.17 1538.98 Q1211.69 1537.71 1209.02 1537.07 Q1206.34 1536.44 1203.48 1536.44 Q1199.12 1536.44 1196.92 1537.77 Q1194.76 1539.11 1194.76 1541.79 Q1194.76 1543.82 1196.32 1545 Q1197.88 1546.15 1202.59 1547.2 L1204.59 1547.64 Q1210.83 1548.98 1213.44 1551.43 Q1216.08 1553.85 1216.08 1558.21 Q1216.08 1563.17 1212.13 1566.07 Q1208.22 1568.97 1201.34 1568.97 Q1198.48 1568.97 1195.36 1568.39 Q1192.27 1567.85 1188.84 1566.74 L1188.84 1560.69 Q1192.08 1562.38 1195.23 1563.24 Q1198.38 1564.07 1201.47 1564.07 Q1205.61 1564.07 1207.84 1562.66 Q1210.07 1561.23 1210.07 1558.65 Q1210.07 1556.27 1208.44 1554.99 Q1206.85 1553.72 1201.41 1552.54 L1199.37 1552.07 Q1193.93 1550.92 1191.51 1548.56 Q1189.09 1546.18 1189.09 1542.04 Q1189.09 1537.01 1192.66 1534.27 Q1196.22 1531.54 1202.78 1531.54 Q1206.02 1531.54 1208.89 1532.01 Q1211.75 1532.49 1214.17 1533.45 Z" fill="#000000" fill-rule="nonzero" fill-opacity="1" /><path clip-path="url(#clip020)" d="M1231.2 1522.27 L1231.2 1532.4 L1243.26 1532.4 L1243.26 1536.95 L1231.2 1536.95 L1231.2 1556.3 Q1231.2 1560.66 1232.38 1561.9 Q1233.59 1563.14 1237.25 1563.14 L1243.26 1563.14 L1243.26 1568.04 L1237.25 1568.04 Q1230.47 1568.04 1227.89 1565.53 Q1225.31 1562.98 1225.31 1556.3 L1225.31 1536.95 L1221.01 1536.95 L1221.01 1532.4 L1225.31 1532.4 L1225.31 1522.27 L1231.2 1522.27 Z" fill="#000000" fill-rule="nonzero" fill-opacity="1" /><path clip-path="url(#clip020)" d="M1267.17 1550.12 Q1260.07 1550.12 1257.33 1551.75 Q1254.59 1553.37 1254.59 1557.29 Q1254.59 1560.4 1256.63 1562.25 Q1258.7 1564.07 1262.23 1564.07 Q1267.1 1564.07 1270.03 1560.63 Q1272.99 1557.16 1272.99 1551.43 L1272.99 1550.12 L1267.17 1550.12 M1278.85 1547.71 L1278.85 1568.04 L1272.99 1568.04 L1272.99 1562.63 Q1270.99 1565.88 1267.99 1567.44 Q1265 1568.97 1260.67 1568.97 Q1255.2 1568.97 1251.95 1565.91 Q1248.74 1562.82 1248.74 1557.67 Q1248.74 1551.65 1252.75 1548.6 Q1256.79 1545.54 1264.78 1545.54 L1272.99 1545.54 L1272.99 1544.97 Q1272.99 1540.93 1270.32 1538.73 Q1267.68 1536.5 1262.87 1536.5 Q1259.81 1536.5 1256.92 1537.23 Q1254.02 1537.97 1251.35 1539.43 L1251.35 1534.02 Q1254.56 1532.78 1257.59 1532.17 Q1260.61 1531.54 1263.47 1531.54 Q1271.21 1531.54 1275.03 1535.55 Q1278.85 1539.56 1278.85 1547.71 Z" fill="#000000" fill-rule="nonzero" fill-opacity="1" /><path clip-path="url(#clip020)" d="M1320.54 1546.53 L1320.54 1568.04 L1314.69 1568.04 L1314.69 1546.72 Q1314.69 1541.66 1312.71 1539.14 Q1310.74 1536.63 1306.79 1536.63 Q1302.05 1536.63 1299.31 1539.65 Q1296.58 1542.68 1296.58 1547.9 L1296.58 1568.04 L1290.69 1568.04 L1290.69 1532.4 L1296.58 1532.4 L1296.58 1537.93 Q1298.68 1534.72 1301.51 1533.13 Q1304.37 1531.54 1308.1 1531.54 Q1314.24 1531.54 1317.39 1535.36 Q1320.54 1539.14 1320.54 1546.53 Z" fill="#000000" fill-rule="nonzero" fill-opacity="1" /><path clip-path="url(#clip020)" d="M1357.88 1533.76 L1357.88 1539.24 Q1355.39 1537.87 1352.88 1537.2 Q1350.4 1536.5 1347.85 1536.5 Q1342.15 1536.5 1339 1540.13 Q1335.85 1543.73 1335.85 1550.25 Q1335.85 1556.78 1339 1560.4 Q1342.15 1564 1347.85 1564 Q1350.4 1564 1352.88 1563.33 Q1355.39 1562.63 1357.88 1561.26 L1357.88 1566.68 Q1355.43 1567.82 1352.78 1568.39 Q1350.18 1568.97 1347.21 1568.97 Q1339.16 1568.97 1334.42 1563.91 Q1329.68 1558.85 1329.68 1550.25 Q1329.68 1541.53 1334.45 1536.53 Q1339.26 1531.54 1347.6 1531.54 Q1350.3 1531.54 1352.88 1532.11 Q1355.46 1532.65 1357.88 1533.76 Z" fill="#000000" fill-rule="nonzero" fill-opacity="1" /><path clip-path="url(#clip020)" d="M1398.55 1548.76 L1398.55 1551.62 L1371.63 1551.62 Q1372.01 1557.67 1375.26 1560.85 Q1378.53 1564 1384.36 1564 Q1387.73 1564 1390.88 1563.17 Q1394.07 1562.35 1397.19 1560.69 L1397.19 1566.23 Q1394.03 1567.57 1390.72 1568.27 Q1387.41 1568.97 1384.01 1568.97 Q1375.48 1568.97 1370.48 1564 Q1365.52 1559.04 1365.52 1550.57 Q1365.52 1541.82 1370.23 1536.69 Q1374.97 1531.54 1382.99 1531.54 Q1390.18 1531.54 1394.35 1536.18 Q1398.55 1540.8 1398.55 1548.76 M1392.7 1547.04 Q1392.63 1542.23 1389.99 1539.37 Q1387.38 1536.5 1383.05 1536.5 Q1378.15 1536.5 1375.19 1539.27 Q1372.26 1542.04 1371.82 1547.07 L1392.7 1547.04 Z" fill="#000000" fill-rule="nonzero" fill-opacity="1" /><path clip-path="url(#clip020)" d="M1442.96 1518.58 Q1438.69 1525.9 1436.62 1533.06 Q1434.55 1540.23 1434.55 1547.58 Q1434.55 1554.93 1436.62 1562.16 Q1438.72 1569.35 1442.96 1576.64 L1437.86 1576.64 Q1433.09 1569.16 1430.7 1561.93 Q1428.35 1554.71 1428.35 1547.58 Q1428.35 1540.48 1430.7 1533.29 Q1433.06 1526.09 1437.86 1518.58 L1442.96 1518.58 Z" fill="#000000" fill-rule="nonzero" fill-opacity="1" /><path clip-path="url(#clip020)" d="M1474.97 1537.87 Q1473.99 1537.3 1472.81 1537.04 Q1471.66 1536.76 1470.26 1536.76 Q1465.3 1536.76 1462.63 1540 Q1459.98 1543.22 1459.98 1549.27 L1459.98 1568.04 L1454.1 1568.04 L1454.1 1532.4 L1459.98 1532.4 L1459.98 1537.93 Q1461.83 1534.69 1464.79 1533.13 Q1467.75 1531.54 1471.98 1531.54 Q1472.59 1531.54 1473.32 1531.63 Q1474.05 1531.7 1474.94 1531.85 L1474.97 1537.87 Z" fill="#000000" fill-rule="nonzero" fill-opacity="1" /><path clip-path="url(#clip020)" d="M1480.19 1518.58 L1485.29 1518.58 Q1490.06 1526.09 1492.42 1533.29 Q1494.8 1540.48 1494.8 1547.58 Q1494.8 1554.71 1492.42 1561.93 Q1490.06 1569.16 1485.29 1576.64 L1480.19 1576.64 Q1484.43 1569.35 1486.5 1562.16 Q1488.6 1554.93 1488.6 1547.58 Q1488.6 1540.23 1486.5 1533.06 Q1484.43 1525.9 1480.19 1518.58 Z" fill="#000000" fill-rule="nonzero" fill-opacity="1" /><polyline clip-path="url(#clip020)" style="stroke:#000000; stroke-linecap:round; stroke-linejoin:round; stroke-width:4; stroke-opacity:1; fill:none" points="265.445,1423.18 265.445,123.472 "/>
<polyline clip-path="url(#clip020)" style="stroke:#000000; stroke-linecap:round; stroke-linejoin:round; stroke-width:4; stroke-opacity:1; fill:none" points="265.445,1394.18 284.342,1394.18 "/>
<polyline clip-path="url(#clip020)" style="stroke:#000000; stroke-linecap:round; stroke-linejoin:round; stroke-width:4; stroke-opacity:1; fill:none" points="265.445,1202.28 284.342,1202.28 "/>
<polyline clip-path="url(#clip020)" style="stroke:#000000; stroke-linecap:round; stroke-linejoin:round; stroke-width:4; stroke-opacity:1; fill:none" points="265.445,1010.37 284.342,1010.37 "/>
<polyline clip-path="url(#clip020)" style="stroke:#000000; stroke-linecap:round; stroke-linejoin:round; stroke-width:4; stroke-opacity:1; fill:none" points="265.445,818.465 284.342,818.465 "/>
<polyline clip-path="url(#clip020)" style="stroke:#000000; stroke-linecap:round; stroke-linejoin:round; stroke-width:4; stroke-opacity:1; fill:none" points="265.445,626.559 284.342,626.559 "/>
<polyline clip-path="url(#clip020)" style="stroke:#000000; stroke-linecap:round; stroke-linejoin:round; stroke-width:4; stroke-opacity:1; fill:none" points="265.445,434.652 284.342,434.652 "/>
<polyline clip-path="url(#clip020)" style="stroke:#000000; stroke-linecap:round; stroke-linejoin:round; stroke-width:4; stroke-opacity:1; fill:none" points="265.445,242.746 284.342,242.746 "/>
<path clip-path="url(#clip020)" d="M217.5 1379.98 Q213.889 1379.98 212.061 1383.55 Q210.255 1387.09 210.255 1394.22 Q210.255 1401.32 212.061 1404.89 Q213.889 1408.43 217.5 1408.43 Q221.135 1408.43 222.94 1404.89 Q224.769 1401.32 224.769 1394.22 Q224.769 1387.09 222.94 1383.55 Q221.135 1379.98 217.5 1379.98 M217.5 1376.28 Q223.31 1376.28 226.366 1380.89 Q229.445 1385.47 229.445 1394.22 Q229.445 1402.95 226.366 1407.55 Q223.31 1412.13 217.5 1412.13 Q211.69 1412.13 208.612 1407.55 Q205.556 1402.95 205.556 1394.22 Q205.556 1385.47 208.612 1380.89 Q211.69 1376.28 217.5 1376.28 Z" fill="#000000" fill-rule="nonzero" fill-opacity="1" /><path clip-path="url(#clip020)" d="M117.825 1215.62 L125.464 1215.62 L125.464 1189.26 L117.154 1190.92 L117.154 1186.66 L125.418 1185 L130.093 1185 L130.093 1215.62 L137.732 1215.62 L137.732 1219.56 L117.825 1219.56 L117.825 1215.62 Z" fill="#000000" fill-rule="nonzero" fill-opacity="1" /><path clip-path="url(#clip020)" d="M157.177 1188.08 Q153.566 1188.08 151.737 1191.64 Q149.931 1195.18 149.931 1202.31 Q149.931 1209.42 151.737 1212.98 Q153.566 1216.52 157.177 1216.52 Q160.811 1216.52 162.616 1212.98 Q164.445 1209.42 164.445 1202.31 Q164.445 1195.18 162.616 1191.64 Q160.811 1188.08 157.177 1188.08 M157.177 1184.37 Q162.987 1184.37 166.042 1188.98 Q169.121 1193.56 169.121 1202.31 Q169.121 1211.04 166.042 1215.65 Q162.987 1220.23 157.177 1220.23 Q151.366 1220.23 148.288 1215.65 Q145.232 1211.04 145.232 1202.31 Q145.232 1193.56 148.288 1188.98 Q151.366 1184.37 157.177 1184.37 Z" fill="#000000" fill-rule="nonzero" fill-opacity="1" /><path clip-path="url(#clip020)" d="M187.338 1188.08 Q183.727 1188.08 181.899 1191.64 Q180.093 1195.18 180.093 1202.31 Q180.093 1209.42 181.899 1212.98 Q183.727 1216.52 187.338 1216.52 Q190.973 1216.52 192.778 1212.98 Q194.607 1209.42 194.607 1202.31 Q194.607 1195.18 192.778 1191.64 Q190.973 1188.08 187.338 1188.08 M187.338 1184.37 Q193.149 1184.37 196.204 1188.98 Q199.283 1193.56 199.283 1202.31 Q199.283 1211.04 196.204 1215.65 Q193.149 1220.23 187.338 1220.23 Q181.528 1220.23 178.45 1215.65 Q175.394 1211.04 175.394 1202.31 Q175.394 1193.56 178.45 1188.98 Q181.528 1184.37 187.338 1184.37 Z" fill="#000000" fill-rule="nonzero" fill-opacity="1" /><path clip-path="url(#clip020)" d="M217.5 1188.08 Q213.889 1188.08 212.061 1191.64 Q210.255 1195.18 210.255 1202.31 Q210.255 1209.42 212.061 1212.98 Q213.889 1216.52 217.5 1216.52 Q221.135 1216.52 222.94 1212.98 Q224.769 1209.42 224.769 1202.31 Q224.769 1195.18 222.94 1191.64 Q221.135 1188.08 217.5 1188.08 M217.5 1184.37 Q223.31 1184.37 226.366 1188.98 Q229.445 1193.56 229.445 1202.31 Q229.445 1211.04 226.366 1215.65 Q223.31 1220.23 217.5 1220.23 Q211.69 1220.23 208.612 1215.65 Q205.556 1211.04 205.556 1202.31 Q205.556 1193.56 208.612 1188.98 Q211.69 1184.37 217.5 1184.37 Z" fill="#000000" fill-rule="nonzero" fill-opacity="1" /><path clip-path="url(#clip020)" d="M121.043 1023.72 L137.362 1023.72 L137.362 1027.65 L115.418 1027.65 L115.418 1023.72 Q118.08 1020.96 122.663 1016.33 Q127.269 1011.68 128.45 1010.34 Q130.695 1007.81 131.575 1006.08 Q132.478 1004.32 132.478 1002.63 Q132.478 999.873 130.533 998.137 Q128.612 996.401 125.51 996.401 Q123.311 996.401 120.857 997.165 Q118.427 997.929 115.649 999.48 L115.649 994.758 Q118.473 993.623 120.927 993.045 Q123.38 992.466 125.418 992.466 Q130.788 992.466 133.982 995.151 Q137.177 997.836 137.177 1002.33 Q137.177 1004.46 136.367 1006.38 Q135.579 1008.28 133.473 1010.87 Q132.894 1011.54 129.792 1014.76 Q126.691 1017.95 121.043 1023.72 Z" fill="#000000" fill-rule="nonzero" fill-opacity="1" /><path clip-path="url(#clip020)" d="M157.177 996.17 Q153.566 996.17 151.737 999.735 Q149.931 1003.28 149.931 1010.41 Q149.931 1017.51 151.737 1021.08 Q153.566 1024.62 157.177 1024.62 Q160.811 1024.62 162.616 1021.08 Q164.445 1017.51 164.445 1010.41 Q164.445 1003.28 162.616 999.735 Q160.811 996.17 157.177 996.17 M157.177 992.466 Q162.987 992.466 166.042 997.073 Q169.121 1001.66 169.121 1010.41 Q169.121 1019.13 166.042 1023.74 Q162.987 1028.32 157.177 1028.32 Q151.366 1028.32 148.288 1023.74 Q145.232 1019.13 145.232 1010.41 Q145.232 1001.66 148.288 997.073 Q151.366 992.466 157.177 992.466 Z" fill="#000000" fill-rule="nonzero" fill-opacity="1" /><path clip-path="url(#clip020)" d="M187.338 996.17 Q183.727 996.17 181.899 999.735 Q180.093 1003.28 180.093 1010.41 Q180.093 1017.51 181.899 1021.08 Q183.727 1024.62 187.338 1024.62 Q190.973 1024.62 192.778 1021.08 Q194.607 1017.51 194.607 1010.41 Q194.607 1003.28 192.778 999.735 Q190.973 996.17 187.338 996.17 M187.338 992.466 Q193.149 992.466 196.204 997.073 Q199.283 1001.66 199.283 1010.41 Q199.283 1019.13 196.204 1023.74 Q193.149 1028.32 187.338 1028.32 Q181.528 1028.32 178.45 1023.74 Q175.394 1019.13 175.394 1010.41 Q175.394 1001.66 178.45 997.073 Q181.528 992.466 187.338 992.466 Z" fill="#000000" fill-rule="nonzero" fill-opacity="1" /><path clip-path="url(#clip020)" d="M217.5 996.17 Q213.889 996.17 212.061 999.735 Q210.255 1003.28 210.255 1010.41 Q210.255 1017.51 212.061 1021.08 Q213.889 1024.62 217.5 1024.62 Q221.135 1024.62 222.94 1021.08 Q224.769 1017.51 224.769 1010.41 Q224.769 1003.28 222.94 999.735 Q221.135 996.17 217.5 996.17 M217.5 992.466 Q223.31 992.466 226.366 997.073 Q229.445 1001.66 229.445 1010.41 Q229.445 1019.13 226.366 1023.74 Q223.31 1028.32 217.5 1028.32 Q211.69 1028.32 208.612 1023.74 Q205.556 1019.13 205.556 1010.41 Q205.556 1001.66 208.612 997.073 Q211.69 992.466 217.5 992.466 Z" fill="#000000" fill-rule="nonzero" fill-opacity="1" /><path clip-path="url(#clip020)" d="M131.181 817.111 Q134.538 817.828 136.413 820.097 Q138.311 822.365 138.311 825.699 Q138.311 830.814 134.792 833.615 Q131.274 836.416 124.793 836.416 Q122.617 836.416 120.302 835.976 Q118.01 835.56 115.556 834.703 L115.556 830.189 Q117.501 831.324 119.816 831.902 Q122.13 832.481 124.654 832.481 Q129.052 832.481 131.343 830.745 Q133.658 829.009 133.658 825.699 Q133.658 822.643 131.505 820.93 Q129.376 819.194 125.556 819.194 L121.529 819.194 L121.529 815.351 L125.742 815.351 Q129.191 815.351 131.019 813.986 Q132.848 812.597 132.848 810.004 Q132.848 807.342 130.95 805.93 Q129.075 804.495 125.556 804.495 Q123.635 804.495 121.436 804.912 Q119.237 805.328 116.598 806.208 L116.598 802.041 Q119.26 801.301 121.575 800.93 Q123.913 800.56 125.973 800.56 Q131.297 800.56 134.399 802.99 Q137.501 805.398 137.501 809.518 Q137.501 812.388 135.857 814.379 Q134.214 816.347 131.181 817.111 Z" fill="#000000" fill-rule="nonzero" fill-opacity="1" /><path clip-path="url(#clip020)" d="M157.177 804.263 Q153.566 804.263 151.737 807.828 Q149.931 811.37 149.931 818.5 Q149.931 825.606 151.737 829.171 Q153.566 832.712 157.177 832.712 Q160.811 832.712 162.616 829.171 Q164.445 825.606 164.445 818.5 Q164.445 811.37 162.616 807.828 Q160.811 804.263 157.177 804.263 M157.177 800.56 Q162.987 800.56 166.042 805.166 Q169.121 809.75 169.121 818.5 Q169.121 827.226 166.042 831.833 Q162.987 836.416 157.177 836.416 Q151.366 836.416 148.288 831.833 Q145.232 827.226 145.232 818.5 Q145.232 809.75 148.288 805.166 Q151.366 800.56 157.177 800.56 Z" fill="#000000" fill-rule="nonzero" fill-opacity="1" /><path clip-path="url(#clip020)" d="M187.338 804.263 Q183.727 804.263 181.899 807.828 Q180.093 811.37 180.093 818.5 Q180.093 825.606 181.899 829.171 Q183.727 832.712 187.338 832.712 Q190.973 832.712 192.778 829.171 Q194.607 825.606 194.607 818.5 Q194.607 811.37 192.778 807.828 Q190.973 804.263 187.338 804.263 M187.338 800.56 Q193.149 800.56 196.204 805.166 Q199.283 809.75 199.283 818.5 Q199.283 827.226 196.204 831.833 Q193.149 836.416 187.338 836.416 Q181.528 836.416 178.45 831.833 Q175.394 827.226 175.394 818.5 Q175.394 809.75 178.45 805.166 Q181.528 800.56 187.338 800.56 Z" fill="#000000" fill-rule="nonzero" fill-opacity="1" /><path clip-path="url(#clip020)" d="M217.5 804.263 Q213.889 804.263 212.061 807.828 Q210.255 811.37 210.255 818.5 Q210.255 825.606 212.061 829.171 Q213.889 832.712 217.5 832.712 Q221.135 832.712 222.94 829.171 Q224.769 825.606 224.769 818.5 Q224.769 811.37 222.94 807.828 Q221.135 804.263 217.5 804.263 M217.5 800.56 Q223.31 800.56 226.366 805.166 Q229.445 809.75 229.445 818.5 Q229.445 827.226 226.366 831.833 Q223.31 836.416 217.5 836.416 Q211.69 836.416 208.612 831.833 Q205.556 827.226 205.556 818.5 Q205.556 809.75 208.612 805.166 Q211.69 800.56 217.5 800.56 Z" fill="#000000" fill-rule="nonzero" fill-opacity="1" /><path clip-path="url(#clip020)" d="M129.862 613.353 L118.056 631.802 L129.862 631.802 L129.862 613.353 M128.635 609.279 L134.515 609.279 L134.515 631.802 L139.445 631.802 L139.445 635.69 L134.515 635.69 L134.515 643.839 L129.862 643.839 L129.862 635.69 L114.26 635.69 L114.26 631.177 L128.635 609.279 Z" fill="#000000" fill-rule="nonzero" fill-opacity="1" /><path clip-path="url(#clip020)" d="M157.177 612.357 Q153.566 612.357 151.737 615.922 Q149.931 619.464 149.931 626.593 Q149.931 633.7 151.737 637.264 Q153.566 640.806 157.177 640.806 Q160.811 640.806 162.616 637.264 Q164.445 633.7 164.445 626.593 Q164.445 619.464 162.616 615.922 Q160.811 612.357 157.177 612.357 M157.177 608.654 Q162.987 608.654 166.042 613.26 Q169.121 617.843 169.121 626.593 Q169.121 635.32 166.042 639.927 Q162.987 644.51 157.177 644.51 Q151.366 644.51 148.288 639.927 Q145.232 635.32 145.232 626.593 Q145.232 617.843 148.288 613.26 Q151.366 608.654 157.177 608.654 Z" fill="#000000" fill-rule="nonzero" fill-opacity="1" /><path clip-path="url(#clip020)" d="M187.338 612.357 Q183.727 612.357 181.899 615.922 Q180.093 619.464 180.093 626.593 Q180.093 633.7 181.899 637.264 Q183.727 640.806 187.338 640.806 Q190.973 640.806 192.778 637.264 Q194.607 633.7 194.607 626.593 Q194.607 619.464 192.778 615.922 Q190.973 612.357 187.338 612.357 M187.338 608.654 Q193.149 608.654 196.204 613.26 Q199.283 617.843 199.283 626.593 Q199.283 635.32 196.204 639.927 Q193.149 644.51 187.338 644.51 Q181.528 644.51 178.45 639.927 Q175.394 635.32 175.394 626.593 Q175.394 617.843 178.45 613.26 Q181.528 608.654 187.338 608.654 Z" fill="#000000" fill-rule="nonzero" fill-opacity="1" /><path clip-path="url(#clip020)" d="M217.5 612.357 Q213.889 612.357 212.061 615.922 Q210.255 619.464 210.255 626.593 Q210.255 633.7 212.061 637.264 Q213.889 640.806 217.5 640.806 Q221.135 640.806 222.94 637.264 Q224.769 633.7 224.769 626.593 Q224.769 619.464 222.94 615.922 Q221.135 612.357 217.5 612.357 M217.5 608.654 Q223.31 608.654 226.366 613.26 Q229.445 617.843 229.445 626.593 Q229.445 635.32 226.366 639.927 Q223.31 644.51 217.5 644.51 Q211.69 644.51 208.612 639.927 Q205.556 635.32 205.556 626.593 Q205.556 617.843 208.612 613.26 Q211.69 608.654 217.5 608.654 Z" fill="#000000" fill-rule="nonzero" fill-opacity="1" /><path clip-path="url(#clip020)" d="M117.061 417.372 L135.417 417.372 L135.417 421.307 L121.343 421.307 L121.343 429.78 Q122.362 429.432 123.38 429.27 Q124.399 429.085 125.418 429.085 Q131.205 429.085 134.584 432.256 Q137.964 435.428 137.964 440.844 Q137.964 446.423 134.492 449.525 Q131.019 452.604 124.7 452.604 Q122.524 452.604 120.255 452.233 Q118.01 451.863 115.603 451.122 L115.603 446.423 Q117.686 447.557 119.908 448.113 Q122.13 448.668 124.607 448.668 Q128.612 448.668 130.95 446.562 Q133.288 444.455 133.288 440.844 Q133.288 437.233 130.95 435.127 Q128.612 433.02 124.607 433.02 Q122.732 433.02 120.857 433.437 Q119.006 433.854 117.061 434.733 L117.061 417.372 Z" fill="#000000" fill-rule="nonzero" fill-opacity="1" /><path clip-path="url(#clip020)" d="M157.177 420.451 Q153.566 420.451 151.737 424.016 Q149.931 427.557 149.931 434.687 Q149.931 441.793 151.737 445.358 Q153.566 448.9 157.177 448.9 Q160.811 448.9 162.616 445.358 Q164.445 441.793 164.445 434.687 Q164.445 427.557 162.616 424.016 Q160.811 420.451 157.177 420.451 M157.177 416.747 Q162.987 416.747 166.042 421.354 Q169.121 425.937 169.121 434.687 Q169.121 443.414 166.042 448.02 Q162.987 452.604 157.177 452.604 Q151.366 452.604 148.288 448.02 Q145.232 443.414 145.232 434.687 Q145.232 425.937 148.288 421.354 Q151.366 416.747 157.177 416.747 Z" fill="#000000" fill-rule="nonzero" fill-opacity="1" /><path clip-path="url(#clip020)" d="M187.338 420.451 Q183.727 420.451 181.899 424.016 Q180.093 427.557 180.093 434.687 Q180.093 441.793 181.899 445.358 Q183.727 448.9 187.338 448.9 Q190.973 448.9 192.778 445.358 Q194.607 441.793 194.607 434.687 Q194.607 427.557 192.778 424.016 Q190.973 420.451 187.338 420.451 M187.338 416.747 Q193.149 416.747 196.204 421.354 Q199.283 425.937 199.283 434.687 Q199.283 443.414 196.204 448.02 Q193.149 452.604 187.338 452.604 Q181.528 452.604 178.45 448.02 Q175.394 443.414 175.394 434.687 Q175.394 425.937 178.45 421.354 Q181.528 416.747 187.338 416.747 Z" fill="#000000" fill-rule="nonzero" fill-opacity="1" /><path clip-path="url(#clip020)" d="M217.5 420.451 Q213.889 420.451 212.061 424.016 Q210.255 427.557 210.255 434.687 Q210.255 441.793 212.061 445.358 Q213.889 448.9 217.5 448.9 Q221.135 448.9 222.94 445.358 Q224.769 441.793 224.769 434.687 Q224.769 427.557 222.94 424.016 Q221.135 420.451 217.5 420.451 M217.5 416.747 Q223.31 416.747 226.366 421.354 Q229.445 425.937 229.445 434.687 Q229.445 443.414 226.366 448.02 Q223.31 452.604 217.5 452.604 Q211.69 452.604 208.612 448.02 Q205.556 443.414 205.556 434.687 Q205.556 425.937 208.612 421.354 Q211.69 416.747 217.5 416.747 Z" fill="#000000" fill-rule="nonzero" fill-opacity="1" /><path clip-path="url(#clip020)" d="M127.593 240.883 Q124.445 240.883 122.593 243.035 Q120.765 245.188 120.765 248.938 Q120.765 252.665 122.593 254.841 Q124.445 256.994 127.593 256.994 Q130.742 256.994 132.57 254.841 Q134.422 252.665 134.422 248.938 Q134.422 245.188 132.57 243.035 Q130.742 240.883 127.593 240.883 M136.876 226.23 L136.876 230.489 Q135.117 229.656 133.311 229.216 Q131.529 228.776 129.769 228.776 Q125.14 228.776 122.686 231.901 Q120.255 235.026 119.908 241.346 Q121.274 239.332 123.334 238.267 Q125.394 237.179 127.871 237.179 Q133.08 237.179 136.089 240.35 Q139.121 243.498 139.121 248.938 Q139.121 254.262 135.973 257.48 Q132.825 260.697 127.593 260.697 Q121.598 260.697 118.427 256.114 Q115.256 251.508 115.256 242.781 Q115.256 234.586 119.144 229.725 Q123.033 224.841 129.584 224.841 Q131.343 224.841 133.126 225.188 Q134.931 225.535 136.876 226.23 Z" fill="#000000" fill-rule="nonzero" fill-opacity="1" /><path clip-path="url(#clip020)" d="M157.177 228.545 Q153.566 228.545 151.737 232.11 Q149.931 235.651 149.931 242.781 Q149.931 249.887 151.737 253.452 Q153.566 256.994 157.177 256.994 Q160.811 256.994 162.616 253.452 Q164.445 249.887 164.445 242.781 Q164.445 235.651 162.616 232.11 Q160.811 228.545 157.177 228.545 M157.177 224.841 Q162.987 224.841 166.042 229.447 Q169.121 234.031 169.121 242.781 Q169.121 251.508 166.042 256.114 Q162.987 260.697 157.177 260.697 Q151.366 260.697 148.288 256.114 Q145.232 251.508 145.232 242.781 Q145.232 234.031 148.288 229.447 Q151.366 224.841 157.177 224.841 Z" fill="#000000" fill-rule="nonzero" fill-opacity="1" /><path clip-path="url(#clip020)" d="M187.338 228.545 Q183.727 228.545 181.899 232.11 Q180.093 235.651 180.093 242.781 Q180.093 249.887 181.899 253.452 Q183.727 256.994 187.338 256.994 Q190.973 256.994 192.778 253.452 Q194.607 249.887 194.607 242.781 Q194.607 235.651 192.778 232.11 Q190.973 228.545 187.338 228.545 M187.338 224.841 Q193.149 224.841 196.204 229.447 Q199.283 234.031 199.283 242.781 Q199.283 251.508 196.204 256.114 Q193.149 260.697 187.338 260.697 Q181.528 260.697 178.45 256.114 Q175.394 251.508 175.394 242.781 Q175.394 234.031 178.45 229.447 Q181.528 224.841 187.338 224.841 Z" fill="#000000" fill-rule="nonzero" fill-opacity="1" /><path clip-path="url(#clip020)" d="M217.5 228.545 Q213.889 228.545 212.061 232.11 Q210.255 235.651 210.255 242.781 Q210.255 249.887 212.061 253.452 Q213.889 256.994 217.5 256.994 Q221.135 256.994 222.94 253.452 Q224.769 249.887 224.769 242.781 Q224.769 235.651 222.94 232.11 Q221.135 228.545 217.5 228.545 M217.5 224.841 Q223.31 224.841 226.366 229.447 Q229.445 234.031 229.445 242.781 Q229.445 251.508 226.366 256.114 Q223.31 260.697 217.5 260.697 Q211.69 260.697 208.612 256.114 Q205.556 251.508 205.556 242.781 Q205.556 234.031 208.612 229.447 Q211.69 224.841 217.5 224.841 Z" fill="#000000" fill-rule="nonzero" fill-opacity="1" /><path clip-path="url(#clip020)" d="M16.4842 984.238 L16.4842 954.192 L21.895 954.192 L21.895 977.808 L35.9632 977.808 L35.9632 955.178 L41.3741 955.178 L41.3741 977.808 L58.5933 977.808 L58.5933 953.619 L64.0042 953.619 L64.0042 984.238 L16.4842 984.238 Z" fill="#000000" fill-rule="nonzero" fill-opacity="1" /><path clip-path="url(#clip020)" d="M14.479 943.847 L14.479 930.352 L19.0304 930.352 L19.0304 937.991 L68.0464 937.991 L68.0464 930.352 L72.5979 930.352 L72.5979 943.847 L14.479 943.847 Z" fill="#000000" fill-rule="nonzero" fill-opacity="1" /><path clip-path="url(#clip020)" d="M16.4842 917.621 L16.4842 911.191 L64.0042 911.191 L64.0042 917.621 L16.4842 917.621 Z" fill="#000000" fill-rule="nonzero" fill-opacity="1" /><path clip-path="url(#clip020)" d="M41.3104 891.967 L58.7206 891.967 L58.7206 881.654 Q58.7206 876.466 56.5881 873.984 Q54.4238 871.469 49.9996 871.469 Q45.5436 871.469 43.4429 873.984 Q41.3104 876.466 41.3104 881.654 L41.3104 891.967 M21.7677 891.967 L36.0905 891.967 L36.0905 882.45 Q36.0905 877.739 34.34 875.448 Q32.5576 873.124 28.9291 873.124 Q25.3325 873.124 23.5501 875.448 Q21.7677 877.739 21.7677 882.45 L21.7677 891.967 M16.4842 898.396 L16.4842 881.973 Q16.4842 874.62 19.5397 870.642 Q22.5952 866.663 28.2289 866.663 Q32.5894 866.663 35.1675 868.7 Q37.7456 870.737 38.3822 874.684 Q39.4007 869.941 42.6472 867.332 Q45.8619 864.69 50.6998 864.69 Q57.0655 864.69 60.5348 869.018 Q64.0042 873.347 64.0042 881.336 L64.0042 898.396 L16.4842 898.396 Z" fill="#000000" fill-rule="nonzero" fill-opacity="1" /><path clip-path="url(#clip020)" d="M21.7677 847.248 L58.7206 847.248 L58.7206 839.482 Q58.7206 829.647 54.2646 825.095 Q49.8086 820.512 40.1964 820.512 Q30.6479 820.512 26.2237 825.095 Q21.7677 829.647 21.7677 839.482 L21.7677 847.248 M16.4842 853.677 L16.4842 840.468 Q16.4842 826.655 22.2451 820.193 Q27.9743 813.732 40.1964 813.732 Q52.4822 813.732 58.2432 820.225 Q64.0042 826.718 64.0042 840.468 L64.0042 853.677 L16.4842 853.677 Z" fill="#000000" fill-rule="nonzero" fill-opacity="1" /><path clip-path="url(#clip020)" d="M46.212 757.428 Q39.7508 757.428 36.0905 760.101 Q32.3984 762.743 32.3984 767.39 Q32.3984 772.037 36.0905 774.711 Q39.7508 777.352 46.212 777.352 Q52.6732 777.352 56.3653 774.711 Q60.0256 772.037 60.0256 767.39 Q60.0256 762.743 56.3653 760.101 Q52.6732 757.428 46.212 757.428 M33.7671 777.352 Q30.5842 775.506 29.0564 772.705 Q27.4968 769.873 27.4968 765.958 Q27.4968 759.465 32.6531 755.422 Q37.8093 751.348 46.212 751.348 Q54.6147 751.348 59.771 755.422 Q64.9272 759.465 64.9272 765.958 Q64.9272 769.873 63.3994 772.705 Q61.8398 775.506 58.657 777.352 L64.0042 777.352 L64.0042 783.241 L14.479 783.241 L14.479 777.352 L33.7671 777.352 Z" fill="#000000" fill-rule="nonzero" fill-opacity="1" /><path clip-path="url(#clip020)" d="M14.479 741.641 L14.479 735.784 L64.0042 735.784 L64.0042 741.641 L14.479 741.641 Z" fill="#000000" fill-rule="nonzero" fill-opacity="1" /><path clip-path="url(#clip020)" d="M32.4621 709.717 Q32.4621 714.427 36.1542 717.165 Q39.8145 719.902 46.212 719.902 Q52.6095 719.902 56.3017 717.196 Q59.9619 714.459 59.9619 709.717 Q59.9619 705.038 56.2698 702.301 Q52.5777 699.563 46.212 699.563 Q39.8781 699.563 36.186 702.301 Q32.4621 705.038 32.4621 709.717 M27.4968 709.717 Q27.4968 702.078 32.4621 697.717 Q37.4273 693.357 46.212 693.357 Q54.9649 693.357 59.9619 697.717 Q64.9272 702.078 64.9272 709.717 Q64.9272 717.387 59.9619 721.748 Q54.9649 726.077 46.212 726.077 Q37.4273 726.077 32.4621 721.748 Q27.4968 717.387 27.4968 709.717 Z" fill="#000000" fill-rule="nonzero" fill-opacity="1" /><path clip-path="url(#clip020)" d="M29.7248 657.995 L35.1993 657.995 Q33.8307 660.478 33.1623 662.992 Q32.4621 665.475 32.4621 668.021 Q32.4621 673.719 36.0905 676.87 Q39.6872 680.021 46.212 680.021 Q52.7369 680.021 56.3653 676.87 Q59.9619 673.719 59.9619 668.021 Q59.9619 665.475 59.2935 662.992 Q58.5933 660.478 57.2247 657.995 L62.6355 657.995 Q63.7814 660.446 64.3543 663.088 Q64.9272 665.698 64.9272 668.658 Q64.9272 676.71 59.8664 681.453 Q54.8057 686.195 46.212 686.195 Q37.491 686.195 32.4939 681.421 Q27.4968 676.615 27.4968 668.276 Q27.4968 665.57 28.0697 662.992 Q28.6108 660.414 29.7248 657.995 Z" fill="#000000" fill-rule="nonzero" fill-opacity="1" /><path clip-path="url(#clip020)" d="M14.479 648.033 L14.479 642.145 L43.7294 642.145 L28.3562 624.671 L28.3562 617.191 L45.0344 636.097 L64.0042 616.395 L64.0042 624.034 L46.5939 642.145 L64.0042 642.145 L64.0042 648.033 L14.479 648.033 Z" fill="#000000" fill-rule="nonzero" fill-opacity="1" /><path clip-path="url(#clip020)" d="M29.4065 587.336 L34.9447 587.336 Q33.6716 589.819 33.035 592.492 Q32.3984 595.166 32.3984 598.03 Q32.3984 602.391 33.7352 604.587 Q35.072 606.751 37.7456 606.751 Q39.7826 606.751 40.9603 605.192 Q42.1061 603.632 43.1565 598.922 L43.6021 596.916 Q44.9389 590.678 47.3897 588.068 Q49.8086 585.426 54.1691 585.426 Q59.1344 585.426 62.0308 589.373 Q64.9272 593.288 64.9272 600.163 Q64.9272 603.027 64.3543 606.147 Q63.8132 609.234 62.6992 612.671 L56.6518 612.671 Q58.3387 609.425 59.198 606.274 Q60.0256 603.123 60.0256 600.036 Q60.0256 595.898 58.6251 593.67 Q57.1929 591.442 54.6147 591.442 Q52.2276 591.442 50.9545 593.065 Q49.6813 594.657 48.5037 600.099 L48.0262 602.136 Q46.8804 607.579 44.5251 609.998 Q42.138 612.417 38.0002 612.417 Q32.9713 612.417 30.2341 608.852 Q27.4968 605.287 27.4968 598.731 Q27.4968 595.484 27.9743 592.619 Q28.4517 589.755 29.4065 587.336 Z" fill="#000000" fill-rule="nonzero" fill-opacity="1" /><path clip-path="url(#clip020)" d="M14.479 562.414 L72.5979 562.414 L72.5979 575.91 L68.0464 575.91 L68.0464 568.302 L19.0304 568.302 L19.0304 575.91 L14.479 575.91 L14.479 562.414 Z" fill="#000000" fill-rule="nonzero" fill-opacity="1" /><path clip-path="url(#clip020)" d="M627.819 16.7545 L627.819 25.383 Q623.687 21.5346 618.988 19.6307 Q614.33 17.7268 609.064 17.7268 Q598.693 17.7268 593.184 24.0867 Q587.675 30.4061 587.675 42.3968 Q587.675 54.3469 593.184 60.7069 Q598.693 67.0263 609.064 67.0263 Q614.33 67.0263 618.988 65.1223 Q623.687 63.2184 627.819 59.3701 L627.819 67.9175 Q623.525 70.8341 618.705 72.2924 Q613.925 73.7508 608.577 73.7508 Q594.845 73.7508 586.946 65.3654 Q579.046 56.9395 579.046 42.3968 Q579.046 27.8135 586.946 19.4281 Q594.845 11.0023 608.577 11.0023 Q614.006 11.0023 618.786 12.4606 Q623.606 13.8784 627.819 16.7545 Z" fill="#000000" fill-rule="nonzero" fill-opacity="1" /><path clip-path="url(#clip020)" d="M657.715 32.4315 Q651.72 32.4315 648.236 37.1306 Q644.752 41.7891 644.752 49.9314 Q644.752 58.0738 648.195 62.7728 Q651.679 67.4314 657.715 67.4314 Q663.67 67.4314 667.154 62.7323 Q670.637 58.0333 670.637 49.9314 Q670.637 41.8701 667.154 37.1711 Q663.67 32.4315 657.715 32.4315 M657.715 26.1121 Q667.437 26.1121 672.987 32.4315 Q678.537 38.7509 678.537 49.9314 Q678.537 61.0714 672.987 67.4314 Q667.437 73.7508 657.715 73.7508 Q647.952 73.7508 642.402 67.4314 Q636.893 61.0714 636.893 49.9314 Q636.893 38.7509 642.402 32.4315 Q647.952 26.1121 657.715 26.1121 Z" fill="#000000" fill-rule="nonzero" fill-opacity="1" /><path clip-path="url(#clip020)" d="M728.606 45.1919 L728.606 72.576 L721.152 72.576 L721.152 45.4349 Q721.152 38.994 718.641 35.7938 Q716.129 32.5936 711.106 32.5936 Q705.07 32.5936 701.586 36.4419 Q698.102 40.2903 698.102 46.9338 L698.102 72.576 L690.608 72.576 L690.608 27.2059 L698.102 27.2059 L698.102 34.2544 Q700.776 30.163 704.381 28.1376 Q708.027 26.1121 712.767 26.1121 Q720.585 26.1121 724.595 30.9732 Q728.606 35.7938 728.606 45.1919 Z" fill="#000000" fill-rule="nonzero" fill-opacity="1" /><path clip-path="url(#clip020)" d="M772.396 28.5427 L772.396 35.5912 Q769.236 33.9709 765.834 33.1607 Q762.431 32.3505 758.785 32.3505 Q753.235 32.3505 750.44 34.0519 Q747.685 35.7533 747.685 39.156 Q747.685 41.7486 749.67 43.2475 Q751.655 44.7058 757.651 46.0426 L760.203 46.6097 Q768.143 48.3111 771.464 51.4303 Q774.827 54.509 774.827 60.0587 Q774.827 66.3781 769.803 70.0644 Q764.821 73.7508 756.071 73.7508 Q752.425 73.7508 748.455 73.0216 Q744.526 72.3329 740.151 70.9151 L740.151 63.2184 Q744.283 65.3654 748.293 66.4591 Q752.304 67.5124 756.233 67.5124 Q761.499 67.5124 764.335 65.73 Q767.17 63.9071 767.17 60.6258 Q767.17 57.5877 765.104 55.9673 Q763.079 54.3469 756.152 52.8481 L753.559 52.2405 Q746.632 50.7821 743.554 47.7845 Q740.475 44.7463 740.475 39.4801 Q740.475 33.0797 745.012 29.5959 Q749.549 26.1121 757.894 26.1121 Q762.026 26.1121 765.672 26.7198 Q769.317 27.3274 772.396 28.5427 Z" fill="#000000" fill-rule="nonzero" fill-opacity="1" /><path clip-path="url(#clip020)" d="M794.068 14.324 L794.068 27.2059 L809.421 27.2059 L809.421 32.9987 L794.068 32.9987 L794.068 57.6282 Q794.068 63.1779 795.567 64.7578 Q797.107 66.3376 801.765 66.3376 L809.421 66.3376 L809.421 72.576 L801.765 72.576 Q793.137 72.576 789.855 69.3758 Q786.574 66.1351 786.574 57.6282 L786.574 32.9987 L781.105 32.9987 L781.105 27.2059 L786.574 27.2059 L786.574 14.324 L794.068 14.324 Z" fill="#000000" fill-rule="nonzero" fill-opacity="1" /><path clip-path="url(#clip020)" d="M839.844 49.7694 Q830.81 49.7694 827.326 51.8354 Q823.842 53.9013 823.842 58.8839 Q823.842 62.8538 826.435 65.2034 Q829.068 67.5124 833.565 67.5124 Q839.763 67.5124 843.489 63.1374 Q847.257 58.7219 847.257 51.4303 L847.257 49.7694 L839.844 49.7694 M854.71 46.6907 L854.71 72.576 L847.257 72.576 L847.257 65.6895 Q844.705 69.8214 840.897 71.8063 Q837.089 73.7508 831.58 73.7508 Q824.612 73.7508 820.48 69.8619 Q816.389 65.9325 816.389 59.3701 Q816.389 51.7138 821.493 47.825 Q826.638 43.9361 836.805 43.9361 L847.257 43.9361 L847.257 43.2069 Q847.257 38.0623 843.854 35.2672 Q840.492 32.4315 834.375 32.4315 Q830.486 32.4315 826.8 33.3632 Q823.113 34.295 819.711 36.1584 L819.711 29.2718 Q823.802 27.692 827.65 26.9223 Q831.499 26.1121 835.145 26.1121 Q844.988 26.1121 849.849 31.2163 Q854.71 36.3204 854.71 46.6907 Z" fill="#000000" fill-rule="nonzero" fill-opacity="1" /><path clip-path="url(#clip020)" d="M907.777 45.1919 L907.777 72.576 L900.324 72.576 L900.324 45.4349 Q900.324 38.994 897.812 35.7938 Q895.3 32.5936 890.277 32.5936 Q884.241 32.5936 880.758 36.4419 Q877.274 40.2903 877.274 46.9338 L877.274 72.576 L869.78 72.576 L869.78 27.2059 L877.274 27.2059 L877.274 34.2544 Q879.948 30.163 883.553 28.1376 Q887.199 26.1121 891.938 26.1121 Q899.756 26.1121 903.767 30.9732 Q907.777 35.7938 907.777 45.1919 Z" fill="#000000" fill-rule="nonzero" fill-opacity="1" /><path clip-path="url(#clip020)" d="M930.017 14.324 L930.017 27.2059 L945.37 27.2059 L945.37 32.9987 L930.017 32.9987 L930.017 57.6282 Q930.017 63.1779 931.516 64.7578 Q933.055 66.3376 937.713 66.3376 L945.37 66.3376 L945.37 72.576 L937.713 72.576 Q929.085 72.576 925.804 69.3758 Q922.523 66.1351 922.523 57.6282 L922.523 32.9987 L917.054 32.9987 L917.054 27.2059 L922.523 27.2059 L922.523 14.324 L930.017 14.324 Z" fill="#000000" fill-rule="nonzero" fill-opacity="1" /><path clip-path="url(#clip020)" d="M1020.35 48.0275 L1020.35 51.6733 L986.081 51.6733 Q986.567 59.3701 990.699 63.421 Q994.872 67.4314 1002.28 67.4314 Q1006.58 67.4314 1010.59 66.3781 Q1014.64 65.3249 1018.61 63.2184 L1018.61 70.267 Q1014.6 71.9684 1010.39 72.8596 Q1006.17 73.7508 1001.84 73.7508 Q990.983 73.7508 984.623 67.4314 Q978.303 61.1119 978.303 50.3365 Q978.303 39.1965 984.299 32.6746 Q990.335 26.1121 1000.54 26.1121 Q1009.7 26.1121 1015 32.0264 Q1020.35 37.9003 1020.35 48.0275 M1012.9 45.84 Q1012.82 39.7232 1009.45 36.0774 Q1006.13 32.4315 1000.62 32.4315 Q994.386 32.4315 990.618 35.9558 Q986.891 39.4801 986.324 45.8805 L1012.9 45.84 Z" fill="#000000" fill-rule="nonzero" fill-opacity="1" /><path clip-path="url(#clip020)" d="M1055.55 9.54393 L1055.55 15.7418 L1048.42 15.7418 Q1044.41 15.7418 1042.83 17.3622 Q1041.3 18.9825 1041.3 23.1955 L1041.3 27.2059 L1053.57 27.2059 L1053.57 32.9987 L1041.3 32.9987 L1041.3 72.576 L1033.8 72.576 L1033.8 32.9987 L1026.67 32.9987 L1026.67 27.2059 L1033.8 27.2059 L1033.8 24.0462 Q1033.8 16.471 1037.33 13.0277 Q1040.85 9.54393 1048.51 9.54393 L1055.55 9.54393 Z" fill="#000000" fill-rule="nonzero" fill-opacity="1" /><path clip-path="url(#clip020)" d="M1084.76 9.54393 L1084.76 15.7418 L1077.63 15.7418 Q1073.62 15.7418 1072.04 17.3622 Q1070.5 18.9825 1070.5 23.1955 L1070.5 27.2059 L1082.78 27.2059 L1082.78 32.9987 L1070.5 32.9987 L1070.5 72.576 L1063.01 72.576 L1063.01 32.9987 L1055.88 32.9987 L1055.88 27.2059 L1063.01 27.2059 L1063.01 24.0462 Q1063.01 16.471 1066.53 13.0277 Q1070.06 9.54393 1077.71 9.54393 L1084.76 9.54393 Z" fill="#000000" fill-rule="nonzero" fill-opacity="1" /><path clip-path="url(#clip020)" d="M1129.81 48.0275 L1129.81 51.6733 L1095.54 51.6733 Q1096.02 59.3701 1100.15 63.421 Q1104.33 67.4314 1111.74 67.4314 Q1116.03 67.4314 1120.04 66.3781 Q1124.1 65.3249 1128.07 63.2184 L1128.07 70.267 Q1124.06 71.9684 1119.84 72.8596 Q1115.63 73.7508 1111.29 73.7508 Q1100.44 73.7508 1094.08 67.4314 Q1087.76 61.1119 1087.76 50.3365 Q1087.76 39.1965 1093.75 32.6746 Q1099.79 26.1121 1110 26.1121 Q1119.15 26.1121 1124.46 32.0264 Q1129.81 37.9003 1129.81 48.0275 M1122.35 45.84 Q1122.27 39.7232 1118.91 36.0774 Q1115.59 32.4315 1110.08 32.4315 Q1103.84 32.4315 1100.07 35.9558 Q1096.35 39.4801 1095.78 45.8805 L1122.35 45.84 Z" fill="#000000" fill-rule="nonzero" fill-opacity="1" /><path clip-path="url(#clip020)" d="M1174.69 28.9478 L1174.69 35.9153 Q1171.53 34.1734 1168.33 33.3227 Q1165.17 32.4315 1161.93 32.4315 Q1154.68 32.4315 1150.67 37.0496 Q1146.66 41.6271 1146.66 49.9314 Q1146.66 58.2358 1150.67 62.8538 Q1154.68 67.4314 1161.93 67.4314 Q1165.17 67.4314 1168.33 66.5807 Q1171.53 65.6895 1174.69 63.9476 L1174.69 70.8341 Q1171.57 72.2924 1168.21 73.0216 Q1164.89 73.7508 1161.12 73.7508 Q1150.87 73.7508 1144.84 67.3098 Q1138.8 60.8689 1138.8 49.9314 Q1138.8 38.832 1144.88 32.472 Q1150.99 26.1121 1161.61 26.1121 Q1165.05 26.1121 1168.33 26.8413 Q1171.61 27.5299 1174.69 28.9478 Z" fill="#000000" fill-rule="nonzero" fill-opacity="1" /><path clip-path="url(#clip020)" d="M1195.03 14.324 L1195.03 27.2059 L1210.38 27.2059 L1210.38 32.9987 L1195.03 32.9987 L1195.03 57.6282 Q1195.03 63.1779 1196.53 64.7578 Q1198.07 66.3376 1202.72 66.3376 L1210.38 66.3376 L1210.38 72.576 L1202.72 72.576 Q1194.1 72.576 1190.81 69.3758 Q1187.53 66.1351 1187.53 57.6282 L1187.53 32.9987 L1182.06 32.9987 L1182.06 27.2059 L1187.53 27.2059 L1187.53 14.324 L1195.03 14.324 Z" fill="#000000" fill-rule="nonzero" fill-opacity="1" /><path clip-path="url(#clip020)" d="M1220.18 27.2059 L1227.64 27.2059 L1227.64 72.576 L1220.18 72.576 L1220.18 27.2059 M1220.18 9.54393 L1227.64 9.54393 L1227.64 18.9825 L1220.18 18.9825 L1220.18 9.54393 Z" fill="#000000" fill-rule="nonzero" fill-opacity="1" /><path clip-path="url(#clip020)" d="M1237.89 27.2059 L1245.78 27.2059 L1259.96 65.2844 L1274.14 27.2059 L1282.04 27.2059 L1265.03 72.576 L1254.9 72.576 L1237.89 27.2059 Z" fill="#000000" fill-rule="nonzero" fill-opacity="1" /><path clip-path="url(#clip020)" d="M1331.14 48.0275 L1331.14 51.6733 L1296.87 51.6733 Q1297.35 59.3701 1301.48 63.421 Q1305.66 67.4314 1313.07 67.4314 Q1317.36 67.4314 1321.37 66.3781 Q1325.43 65.3249 1329.4 63.2184 L1329.4 70.267 Q1325.38 71.9684 1321.17 72.8596 Q1316.96 73.7508 1312.62 73.7508 Q1301.77 73.7508 1295.41 67.4314 Q1289.09 61.1119 1289.09 50.3365 Q1289.09 39.1965 1295.08 32.6746 Q1301.12 26.1121 1311.33 26.1121 Q1320.48 26.1121 1325.79 32.0264 Q1331.14 37.9003 1331.14 48.0275 M1323.68 45.84 Q1323.6 39.7232 1320.24 36.0774 Q1316.92 32.4315 1311.41 32.4315 Q1305.17 32.4315 1301.4 35.9558 Q1297.68 39.4801 1297.11 45.8805 L1323.68 45.84 Z" fill="#000000" fill-rule="nonzero" fill-opacity="1" /><path clip-path="url(#clip020)" d="M1399.6 34.0924 L1399.6 9.54393 L1407.05 9.54393 L1407.05 72.576 L1399.6 72.576 L1399.6 65.7705 Q1397.25 69.8214 1393.64 71.8063 Q1390.08 73.7508 1385.05 73.7508 Q1376.83 73.7508 1371.65 67.1883 Q1366.5 60.6258 1366.5 49.9314 Q1366.5 39.2371 1371.65 32.6746 Q1376.83 26.1121 1385.05 26.1121 Q1390.08 26.1121 1393.64 28.0971 Q1397.25 30.0415 1399.6 34.0924 M1374.2 49.9314 Q1374.2 58.1548 1377.56 62.8538 Q1380.96 67.5124 1386.88 67.5124 Q1392.79 67.5124 1396.19 62.8538 Q1399.6 58.1548 1399.6 49.9314 Q1399.6 41.7081 1396.19 37.0496 Q1392.79 32.3505 1386.88 32.3505 Q1380.96 32.3505 1377.56 37.0496 Q1374.2 41.7081 1374.2 49.9314 Z" fill="#000000" fill-rule="nonzero" fill-opacity="1" /><path clip-path="url(#clip020)" d="M1461.21 48.0275 L1461.21 51.6733 L1426.94 51.6733 Q1427.43 59.3701 1431.56 63.421 Q1435.73 67.4314 1443.14 67.4314 Q1447.44 67.4314 1451.45 66.3781 Q1455.5 65.3249 1459.47 63.2184 L1459.47 70.267 Q1455.46 71.9684 1451.25 72.8596 Q1447.03 73.7508 1442.7 73.7508 Q1431.84 73.7508 1425.48 67.4314 Q1419.16 61.1119 1419.16 50.3365 Q1419.16 39.1965 1425.16 32.6746 Q1431.19 26.1121 1441.4 26.1121 Q1450.56 26.1121 1455.86 32.0264 Q1461.21 37.9003 1461.21 48.0275 M1453.76 45.84 Q1453.68 39.7232 1450.31 36.0774 Q1446.99 32.4315 1441.48 32.4315 Q1435.25 32.4315 1431.48 35.9558 Q1427.75 39.4801 1427.18 45.8805 L1453.76 45.84 Z" fill="#000000" fill-rule="nonzero" fill-opacity="1" /><path clip-path="url(#clip020)" d="M1511.16 45.1919 L1511.16 72.576 L1503.71 72.576 L1503.71 45.4349 Q1503.71 38.994 1501.19 35.7938 Q1498.68 32.5936 1493.66 32.5936 Q1487.62 32.5936 1484.14 36.4419 Q1480.66 40.2903 1480.66 46.9338 L1480.66 72.576 L1473.16 72.576 L1473.16 27.2059 L1480.66 27.2059 L1480.66 34.2544 Q1483.33 30.163 1486.94 28.1376 Q1490.58 26.1121 1495.32 26.1121 Q1503.14 26.1121 1507.15 30.9732 Q1511.16 35.7938 1511.16 45.1919 Z" fill="#000000" fill-rule="nonzero" fill-opacity="1" /><path clip-path="url(#clip020)" d="M1554.95 28.5427 L1554.95 35.5912 Q1551.79 33.9709 1548.39 33.1607 Q1544.98 32.3505 1541.34 32.3505 Q1535.79 32.3505 1532.99 34.0519 Q1530.24 35.7533 1530.24 39.156 Q1530.24 41.7486 1532.22 43.2475 Q1534.21 44.7058 1540.2 46.0426 L1542.76 46.6097 Q1550.7 48.3111 1554.02 51.4303 Q1557.38 54.509 1557.38 60.0587 Q1557.38 66.3781 1552.36 70.0644 Q1547.37 73.7508 1538.62 73.7508 Q1534.98 73.7508 1531.01 73.0216 Q1527.08 72.3329 1522.7 70.9151 L1522.7 63.2184 Q1526.84 65.3654 1530.85 66.4591 Q1534.86 67.5124 1538.79 67.5124 Q1544.05 67.5124 1546.89 65.73 Q1549.72 63.9071 1549.72 60.6258 Q1549.72 57.5877 1547.66 55.9673 Q1545.63 54.3469 1538.71 52.8481 L1536.11 52.2405 Q1529.19 50.7821 1526.11 47.7845 Q1523.03 44.7463 1523.03 39.4801 Q1523.03 33.0797 1527.57 29.5959 Q1532.1 26.1121 1540.45 26.1121 Q1544.58 26.1121 1548.23 26.7198 Q1551.87 27.3274 1554.95 28.5427 Z" fill="#000000" fill-rule="nonzero" fill-opacity="1" /><path clip-path="url(#clip020)" d="M1569.25 27.2059 L1576.7 27.2059 L1576.7 72.576 L1569.25 72.576 L1569.25 27.2059 M1569.25 9.54393 L1576.7 9.54393 L1576.7 18.9825 L1569.25 18.9825 L1569.25 9.54393 Z" fill="#000000" fill-rule="nonzero" fill-opacity="1" /><path clip-path="url(#clip020)" d="M1599.67 14.324 L1599.67 27.2059 L1615.02 27.2059 L1615.02 32.9987 L1599.67 32.9987 L1599.67 57.6282 Q1599.67 63.1779 1601.17 64.7578 Q1602.71 66.3376 1607.37 66.3376 L1615.02 66.3376 L1615.02 72.576 L1607.37 72.576 Q1598.74 72.576 1595.46 69.3758 Q1592.18 66.1351 1592.18 57.6282 L1592.18 32.9987 L1586.71 32.9987 L1586.71 27.2059 L1592.18 27.2059 L1592.18 14.324 L1599.67 14.324 Z" fill="#000000" fill-rule="nonzero" fill-opacity="1" /><path clip-path="url(#clip020)" d="M1643.71 76.7889 Q1640.55 84.8907 1637.55 87.3618 Q1634.55 89.8329 1629.53 89.8329 L1623.57 89.8329 L1623.57 83.5945 L1627.95 83.5945 Q1631.03 83.5945 1632.73 82.1361 Q1634.43 80.6778 1636.49 75.2496 L1637.83 71.8468 L1619.48 27.2059 L1627.38 27.2059 L1641.56 62.6918 L1655.74 27.2059 L1663.64 27.2059 L1643.71 76.7889 Z" fill="#000000" fill-rule="nonzero" fill-opacity="1" /><path clip-path="url(#clip020)" d="M1729.22 28.5427 L1729.22 35.5912 Q1726.06 33.9709 1722.66 33.1607 Q1719.25 32.3505 1715.61 32.3505 Q1710.06 32.3505 1707.26 34.0519 Q1704.51 35.7533 1704.51 39.156 Q1704.51 41.7486 1706.49 43.2475 Q1708.48 44.7058 1714.47 46.0426 L1717.03 46.6097 Q1724.97 48.3111 1728.29 51.4303 Q1731.65 54.509 1731.65 60.0587 Q1731.65 66.3781 1726.63 70.0644 Q1721.64 73.7508 1712.89 73.7508 Q1709.25 73.7508 1705.28 73.0216 Q1701.35 72.3329 1696.97 70.9151 L1696.97 63.2184 Q1701.11 65.3654 1705.12 66.4591 Q1709.13 67.5124 1713.06 67.5124 Q1718.32 67.5124 1721.16 65.73 Q1723.99 63.9071 1723.99 60.6258 Q1723.99 57.5877 1721.93 55.9673 Q1719.9 54.3469 1712.98 52.8481 L1710.38 52.2405 Q1703.46 50.7821 1700.38 47.7845 Q1697.3 44.7463 1697.3 39.4801 Q1697.3 33.0797 1701.84 29.5959 Q1706.37 26.1121 1714.72 26.1121 Q1718.85 26.1121 1722.5 26.7198 Q1726.14 27.3274 1729.22 28.5427 Z" fill="#000000" fill-rule="nonzero" fill-opacity="1" /><path clip-path="url(#clip020)" d="M1776.17 28.9478 L1776.17 35.9153 Q1773.01 34.1734 1769.81 33.3227 Q1766.65 32.4315 1763.41 32.4315 Q1756.16 32.4315 1752.15 37.0496 Q1748.14 41.6271 1748.14 49.9314 Q1748.14 58.2358 1752.15 62.8538 Q1756.16 67.4314 1763.41 67.4314 Q1766.65 67.4314 1769.81 66.5807 Q1773.01 65.6895 1776.17 63.9476 L1776.17 70.8341 Q1773.05 72.2924 1769.69 73.0216 Q1766.37 73.7508 1762.6 73.7508 Q1752.35 73.7508 1746.31 67.3098 Q1740.28 60.8689 1740.28 49.9314 Q1740.28 38.832 1746.35 32.472 Q1752.47 26.1121 1763.09 26.1121 Q1766.53 26.1121 1769.81 26.8413 Q1773.09 27.5299 1776.17 28.9478 Z" fill="#000000" fill-rule="nonzero" fill-opacity="1" /><path clip-path="url(#clip020)" d="M1827.94 48.0275 L1827.94 51.6733 L1793.67 51.6733 Q1794.16 59.3701 1798.29 63.421 Q1802.46 67.4314 1809.87 67.4314 Q1814.17 67.4314 1818.18 66.3781 Q1822.23 65.3249 1826.2 63.2184 L1826.2 70.267 Q1822.19 71.9684 1817.97 72.8596 Q1813.76 73.7508 1809.43 73.7508 Q1798.57 73.7508 1792.21 67.4314 Q1785.89 61.1119 1785.89 50.3365 Q1785.89 39.1965 1791.89 32.6746 Q1797.92 26.1121 1808.13 26.1121 Q1817.29 26.1121 1822.59 32.0264 Q1827.94 37.9003 1827.94 48.0275 M1820.49 45.84 Q1820.41 39.7232 1817.04 36.0774 Q1813.72 32.4315 1808.21 32.4315 Q1801.97 32.4315 1798.21 35.9558 Q1794.48 39.4801 1793.91 45.8805 L1820.49 45.84 Z" fill="#000000" fill-rule="nonzero" fill-opacity="1" /><path clip-path="url(#clip020)" d="M1877.89 45.1919 L1877.89 72.576 L1870.43 72.576 L1870.43 45.4349 Q1870.43 38.994 1867.92 35.7938 Q1865.41 32.5936 1860.39 32.5936 Q1854.35 32.5936 1850.87 36.4419 Q1847.38 40.2903 1847.38 46.9338 L1847.38 72.576 L1839.89 72.576 L1839.89 27.2059 L1847.38 27.2059 L1847.38 34.2544 Q1850.06 30.163 1853.66 28.1376 Q1857.31 26.1121 1862.05 26.1121 Q1869.87 26.1121 1873.88 30.9732 Q1877.89 35.7938 1877.89 45.1919 Z" fill="#000000" fill-rule="nonzero" fill-opacity="1" /><path clip-path="url(#clip020)" d="M1913.37 49.7694 Q1904.34 49.7694 1900.86 51.8354 Q1897.37 53.9013 1897.37 58.8839 Q1897.37 62.8538 1899.97 65.2034 Q1902.6 67.5124 1907.09 67.5124 Q1913.29 67.5124 1917.02 63.1374 Q1920.79 58.7219 1920.79 51.4303 L1920.79 49.7694 L1913.37 49.7694 M1928.24 46.6907 L1928.24 72.576 L1920.79 72.576 L1920.79 65.6895 Q1918.23 69.8214 1914.43 71.8063 Q1910.62 73.7508 1905.11 73.7508 Q1898.14 73.7508 1894.01 69.8619 Q1889.92 65.9325 1889.92 59.3701 Q1889.92 51.7138 1895.02 47.825 Q1900.17 43.9361 1910.34 43.9361 L1920.79 43.9361 L1920.79 43.2069 Q1920.79 38.0623 1917.38 35.2672 Q1914.02 32.4315 1907.9 32.4315 Q1904.02 32.4315 1900.33 33.3632 Q1896.64 34.295 1893.24 36.1584 L1893.24 29.2718 Q1897.33 27.692 1901.18 26.9223 Q1905.03 26.1121 1908.67 26.1121 Q1918.52 26.1121 1923.38 31.2163 Q1928.24 36.3204 1928.24 46.6907 Z" fill="#000000" fill-rule="nonzero" fill-opacity="1" /><path clip-path="url(#clip020)" d="M1969.88 34.1734 Q1968.63 33.4443 1967.13 33.1202 Q1965.67 32.7556 1963.89 32.7556 Q1957.57 32.7556 1954.17 36.8875 Q1950.8 40.9789 1950.8 48.6757 L1950.8 72.576 L1943.31 72.576 L1943.31 27.2059 L1950.8 27.2059 L1950.8 34.2544 Q1953.15 30.1225 1956.92 28.1376 Q1960.69 26.1121 1966.08 26.1121 Q1966.85 26.1121 1967.78 26.2337 Q1968.71 26.3147 1969.84 26.5172 L1969.88 34.1734 Z" fill="#000000" fill-rule="nonzero" fill-opacity="1" /><path clip-path="url(#clip020)" d="M1977.7 27.2059 L1985.16 27.2059 L1985.16 72.576 L1977.7 72.576 L1977.7 27.2059 M1977.7 9.54393 L1985.16 9.54393 L1985.16 18.9825 L1977.7 18.9825 L1977.7 9.54393 Z" fill="#000000" fill-rule="nonzero" fill-opacity="1" /><path clip-path="url(#clip020)" d="M2018.33 32.4315 Q2012.34 32.4315 2008.85 37.1306 Q2005.37 41.7891 2005.37 49.9314 Q2005.37 58.0738 2008.81 62.7728 Q2012.3 67.4314 2018.33 67.4314 Q2024.29 67.4314 2027.77 62.7323 Q2031.26 58.0333 2031.26 49.9314 Q2031.26 41.8701 2027.77 37.1711 Q2024.29 32.4315 2018.33 32.4315 M2018.33 26.1121 Q2028.05 26.1121 2033.6 32.4315 Q2039.15 38.7509 2039.15 49.9314 Q2039.15 61.0714 2033.6 67.4314 Q2028.05 73.7508 2018.33 73.7508 Q2008.57 73.7508 2003.02 67.4314 Q1997.51 61.0714 1997.51 49.9314 Q1997.51 38.7509 2003.02 32.4315 Q2008.57 26.1121 2018.33 26.1121 Z" fill="#000000" fill-rule="nonzero" fill-opacity="1" /><polyline clip-path="url(#clip022)" style="stroke:#009af9; stroke-linecap:round; stroke-linejoin:round; stroke-width:4; stroke-opacity:1; fill:none" points="324.52,160.256 334.415,160.767 344.31,162.11 354.205,164.252 364.101,167.165 373.996,170.82 383.891,175.191 393.787,180.248 403.682,185.965 413.577,192.311 423.472,199.258 433.368,206.778 443.263,214.84 453.158,223.417 463.054,232.481 472.949,242.003 482.844,251.956 492.739,262.313 502.635,273.048 512.53,284.136 522.425,295.55 532.321,307.268 542.216,319.264 552.111,331.516 562.006,344.003 571.902,356.702 581.797,369.592 591.692,382.654 601.588,395.869 611.483,409.217 621.378,422.681 631.273,436.244 641.169,449.89 651.064,463.603 660.959,477.368 670.855,491.17 680.75,504.996 690.645,518.833 700.54,532.669 710.436,546.492 720.331,560.29 730.226,574.053 740.121,587.772 750.017,601.436 759.912,615.037 769.807,628.566 779.703,642.015 789.598,655.377 799.493,668.646 809.388,681.813 819.284,694.874 829.179,707.823 839.074,720.654 848.97,733.363 858.865,745.944 868.76,758.394 878.655,770.71 888.551,782.887 898.446,794.922 908.341,806.813 918.237,818.556 928.132,830.15 938.027,841.593 947.922,852.882 957.818,864.016 967.713,874.994 977.608,885.815 987.504,896.478 997.399,906.981 1007.29,917.325 1017.19,927.509 1027.08,937.533 1036.98,947.397 1046.88,957.101 1056.77,966.645 1066.67,976.029 1076.56,985.255 1086.46,994.323 1096.35,1003.23 1106.25,1011.99 1116.14,1020.58 1126.04,1029.03 1135.93,1037.32 1145.83,1045.45 1155.72,1053.44 1165.62,1061.27 1175.51,1068.96 1185.41,1076.5 1195.3,1083.9 1205.2,1091.15 1215.1,1098.26 1224.99,1105.23 1234.89,1112.06 1244.78,1118.75 1254.68,1125.31 1264.57,1131.73 1274.47,1138.02 1284.36,1144.18 1294.26,1150.21 1304.15,1156.12 1314.05,1161.9 1323.94,1167.56 1333.84,1173.1 1343.73,1178.52 1353.63,1183.82 1363.52,1189.01 1373.42,1194.08 1383.31,1199.04 1393.21,1203.9 1403.11,1208.64 1413,1213.28 1422.9,1217.82 1432.79,1222.25 1442.69,1226.58 1452.58,1230.82 1462.48,1234.95 1472.37,1239 1482.27,1242.95 1492.16,1246.8 1502.06,1250.57 1511.95,1254.25 1521.85,1257.85 1531.74,1261.36 1541.64,1264.79 1551.53,1268.13 1561.43,1271.4 1571.33,1274.59 1581.22,1277.7 1591.12,1280.74 1601.01,1283.7 1610.91,1286.6 1620.8,1289.42 1630.7,1292.17 1640.59,1294.86 1650.49,1297.48 1660.38,1300.04 1670.28,1302.53 1680.17,1304.96 1690.07,1307.33 1699.96,1309.65 1709.86,1311.9 1719.75,1314.1 1729.65,1316.24 1739.55,1318.33 1749.44,1320.37 1759.34,1322.35 1769.23,1324.29 1779.13,1326.18 1789.02,1328.01 1798.92,1329.81 1808.81,1331.55 1818.71,1333.25 1828.6,1334.91 1838.5,1336.52 1848.39,1338.1 1858.29,1339.63 1868.18,1341.12 1878.08,1342.57 1887.97,1343.99 1897.87,1345.37 1907.76,1346.71 1917.66,1348.02 1927.56,1349.29 1937.45,1350.53 1947.35,1351.74 1957.24,1352.91 1967.14,1354.06 1977.03,1355.17 1986.93,1356.26 1996.82,1357.31 2006.72,1358.34 2016.61,1359.34 2026.51,1360.31 2036.4,1361.26 2046.3,1362.18 2056.19,1363.08 2066.09,1363.95 2075.98,1364.8 2085.88,1365.63 2095.78,1366.43 2105.67,1367.21 2115.57,1367.98 2125.46,1368.72 2135.36,1369.44 2145.25,1370.14 2155.15,1370.82 2165.04,1371.48 2174.94,1372.13 2184.83,1372.75 2194.73,1373.36 2204.62,1373.96 2214.52,1374.53 2224.41,1375.09 2234.31,1375.64 2244.2,1376.17 2254.1,1376.68 2264,1377.19 2273.89,1377.67 2283.79,1378.15 2293.68,1378.61 "/>
<polyline clip-path="url(#clip022)" style="stroke:#e26f46; stroke-linecap:round; stroke-linejoin:round; stroke-width:4; stroke-opacity:1; fill:none" points="324.52,777.22 334.415,777.475 344.31,778.147 354.205,779.218 364.101,780.674 373.996,782.502 383.891,784.687 393.787,787.216 403.682,790.074 413.577,793.247 423.472,796.721 433.368,800.481 443.263,804.512 453.158,808.8 463.054,813.332 472.949,818.093 482.844,823.07 492.739,828.248 502.635,833.616 512.53,839.16 522.425,844.867 532.321,850.726 542.216,856.724 552.111,862.85 562.006,869.093 571.902,875.443 581.797,881.888 591.692,888.419 601.588,895.026 611.483,901.7 621.378,908.432 631.273,915.214 641.169,922.037 651.064,928.893 660.959,935.776 670.855,942.677 680.75,949.59 690.645,956.508 700.54,963.426 710.436,970.338 720.331,977.237 730.226,984.118 740.121,990.978 750.017,997.81 759.912,1004.61 769.807,1011.37 779.703,1018.1 789.598,1024.78 799.493,1031.41 809.388,1038 819.284,1044.53 829.179,1051 839.074,1057.42 848.97,1063.77 858.865,1070.06 868.76,1076.29 878.655,1082.45 888.551,1088.54 898.446,1094.55 908.341,1100.5 918.237,1106.37 928.132,1112.17 938.027,1117.89 947.922,1123.53 957.818,1129.1 967.713,1134.59 977.608,1140 987.504,1145.33 997.399,1150.58 1007.29,1155.75 1017.19,1160.85 1027.08,1165.86 1036.98,1170.79 1046.88,1175.64 1056.77,1180.41 1066.67,1185.11 1076.56,1189.72 1086.46,1194.25 1096.35,1198.71 1106.25,1203.08 1116.14,1207.38 1126.04,1211.61 1135.93,1215.75 1145.83,1219.82 1155.72,1223.81 1165.62,1227.73 1175.51,1231.57 1185.41,1235.34 1195.3,1239.04 1205.2,1242.67 1215.1,1246.22 1224.99,1249.71 1234.89,1253.12 1244.78,1256.47 1254.68,1259.74 1264.57,1262.96 1274.47,1266.1 1284.36,1269.18 1294.26,1272.2 1304.15,1275.15 1314.05,1278.04 1323.94,1280.87 1333.84,1283.64 1343.73,1286.35 1353.63,1289 1363.52,1291.6 1373.42,1294.13 1383.31,1296.61 1393.21,1299.04 1403.11,1301.41 1413,1303.73 1422.9,1306 1432.79,1308.22 1442.69,1310.38 1452.58,1312.5 1462.48,1314.57 1472.37,1316.59 1482.27,1318.57 1492.16,1320.49 1502.06,1322.38 1511.95,1324.22 1521.85,1326.02 1531.74,1327.77 1541.64,1329.49 1551.53,1331.16 1561.43,1332.79 1571.33,1334.39 1581.22,1335.94 1591.12,1337.46 1601.01,1338.94 1610.91,1340.39 1620.8,1341.8 1630.7,1343.18 1640.59,1344.52 1650.49,1345.83 1660.38,1347.11 1670.28,1348.36 1680.17,1349.57 1690.07,1350.76 1699.96,1351.91 1709.86,1353.04 1719.75,1354.14 1729.65,1355.21 1739.55,1356.26 1749.44,1357.28 1759.34,1358.27 1769.23,1359.24 1779.13,1360.18 1789.02,1361.1 1798.92,1361.99 1808.81,1362.87 1818.71,1363.72 1828.6,1364.55 1838.5,1365.35 1848.39,1366.14 1858.29,1366.91 1868.18,1367.65 1878.08,1368.38 1887.97,1369.09 1897.87,1369.78 1907.76,1370.45 1917.66,1371.1 1927.56,1371.74 1937.45,1372.36 1947.35,1372.96 1957.24,1373.55 1967.14,1374.12 1977.03,1374.68 1986.93,1375.22 1996.82,1375.75 2006.72,1376.26 2016.61,1376.76 2026.51,1377.25 2036.4,1377.72 2046.3,1378.18 2056.19,1378.63 2066.09,1379.07 2075.98,1379.49 2085.88,1379.91 2095.78,1380.31 2105.67,1380.7 2115.57,1381.08 2125.46,1381.45 2135.36,1381.81 2145.25,1382.16 2155.15,1382.5 2165.04,1382.83 2174.94,1383.15 2184.83,1383.47 2194.73,1383.77 2204.62,1384.07 2214.52,1384.36 2224.41,1384.64 2234.31,1384.91 2244.2,1385.18 2254.1,1385.43 2264,1385.68 2273.89,1385.93 2283.79,1386.17 2293.68,1386.4 "/>
<polyline clip-path="url(#clip022)" style="stroke:#3da44d; stroke-linecap:round; stroke-linejoin:round; stroke-width:4; stroke-opacity:1; fill:none" points="324.52,912.18 334.415,912.259 344.31,912.468 354.205,912.803 364.101,913.26 373.996,913.837 383.891,914.531 393.787,915.34 403.682,916.26 413.577,917.29 423.472,918.427 433.368,919.667 443.263,921.009 453.158,922.449 463.054,923.984 472.949,925.613 482.844,927.332 492.739,929.138 502.635,931.029 512.53,933.001 522.425,935.053 532.321,937.182 542.216,939.384 552.111,941.658 562.006,943.999 571.902,946.407 581.797,948.878 591.692,951.41 601.588,954 611.483,956.646 621.378,959.346 631.273,962.096 641.169,964.895 651.064,967.74 660.959,970.63 670.855,973.561 680.75,976.531 690.645,979.539 700.54,982.583 710.436,985.66 720.331,988.768 730.226,991.905 740.121,995.07 750.017,998.261 759.912,1001.47 769.807,1004.71 779.703,1007.97 789.598,1011.24 799.493,1014.53 809.388,1017.84 819.284,1021.16 829.179,1024.49 839.074,1027.83 848.97,1031.19 858.865,1034.55 868.76,1037.91 878.655,1041.28 888.551,1044.66 898.446,1048.03 908.341,1051.41 918.237,1054.79 928.132,1058.17 938.027,1061.54 947.922,1064.92 957.818,1068.28 967.713,1071.65 977.608,1075 987.504,1078.35 997.399,1081.69 1007.29,1085.02 1017.19,1088.35 1027.08,1091.66 1036.98,1094.96 1046.88,1098.24 1056.77,1101.52 1066.67,1104.78 1076.56,1108.03 1086.46,1111.26 1096.35,1114.48 1106.25,1117.68 1116.14,1120.86 1126.04,1124.03 1135.93,1127.18 1145.83,1130.31 1155.72,1133.43 1165.62,1136.52 1175.51,1139.59 1185.41,1142.65 1195.3,1145.68 1205.2,1148.7 1215.1,1151.69 1224.99,1154.66 1234.89,1157.61 1244.78,1160.54 1254.68,1163.45 1264.57,1166.33 1274.47,1169.19 1284.36,1172.03 1294.26,1174.85 1304.15,1177.64 1314.05,1180.41 1323.94,1183.15 1333.84,1185.88 1343.73,1188.57 1353.63,1191.25 1363.52,1193.9 1373.42,1196.52 1383.31,1199.13 1393.21,1201.7 1403.11,1204.26 1413,1206.79 1422.9,1209.29 1432.79,1211.77 1442.69,1214.23 1452.58,1216.66 1462.48,1219.06 1472.37,1221.45 1482.27,1223.81 1492.16,1226.14 1502.06,1228.45 1511.95,1230.73 1521.85,1232.99 1531.74,1235.23 1541.64,1237.44 1551.53,1239.63 1561.43,1241.8 1571.33,1243.94 1581.22,1246.05 1591.12,1248.15 1601.01,1250.22 1610.91,1252.26 1620.8,1254.28 1630.7,1256.28 1640.59,1258.26 1650.49,1260.21 1660.38,1262.14 1670.28,1264.05 1680.17,1265.94 1690.07,1267.8 1699.96,1269.64 1709.86,1271.45 1719.75,1273.25 1729.65,1275.02 1739.55,1276.78 1749.44,1278.51 1759.34,1280.21 1769.23,1281.9 1779.13,1283.57 1789.02,1285.21 1798.92,1286.84 1808.81,1288.44 1818.71,1290.03 1828.6,1291.59 1838.5,1293.13 1848.39,1294.65 1858.29,1296.16 1868.18,1297.64 1878.08,1299.1 1887.97,1300.55 1897.87,1301.98 1907.76,1303.38 1917.66,1304.77 1927.56,1306.14 1937.45,1307.49 1947.35,1308.82 1957.24,1310.14 1967.14,1311.44 1977.03,1312.72 1986.93,1313.98 1996.82,1315.22 2006.72,1316.45 2016.61,1317.66 2026.51,1318.85 2036.4,1320.03 2046.3,1321.19 2056.19,1322.34 2066.09,1323.47 2075.98,1324.58 2085.88,1325.67 2095.78,1326.76 2105.67,1327.82 2115.57,1328.87 2125.46,1329.91 2135.36,1330.93 2145.25,1331.94 2155.15,1332.93 2165.04,1333.91 2174.94,1334.87 2184.83,1335.82 2194.73,1336.76 2204.62,1337.68 2214.52,1338.59 2224.41,1339.48 2234.31,1340.36 2244.2,1341.23 2254.1,1342.09 2264,1342.93 2273.89,1343.76 2283.79,1344.58 2293.68,1345.39 "/>
<path clip-path="url(#clip020)" d="M1755.42 374.156 L2283.18 374.156 L2283.18 166.796 L1755.42 166.796  Z" fill="#ffffff" fill-rule="evenodd" fill-opacity="1"/>
<polyline clip-path="url(#clip020)" style="stroke:#000000; stroke-linecap:round; stroke-linejoin:round; stroke-width:4; stroke-opacity:1; fill:none" points="1755.42,374.156 2283.18,374.156 2283.18,166.796 1755.42,166.796 1755.42,374.156 "/>
<polyline clip-path="url(#clip020)" style="stroke:#009af9; stroke-linecap:round; stroke-linejoin:round; stroke-width:4; stroke-opacity:1; fill:none" points="1778.61,218.636 1917.77,218.636 "/>
<path clip-path="url(#clip020)" d="M1945.64 205.198 L1945.64 232.073 L1951.28 232.073 Q1958.44 232.073 1961.75 228.832 Q1965.08 225.592 1965.08 218.601 Q1965.08 211.657 1961.75 208.439 Q1958.44 205.198 1951.28 205.198 L1945.64 205.198 M1940.96 201.356 L1950.57 201.356 Q1960.61 201.356 1965.31 205.546 Q1970.01 209.712 1970.01 218.601 Q1970.01 227.536 1965.29 231.726 Q1960.57 235.916 1950.57 235.916 L1940.96 235.916 L1940.96 201.356 Z" fill="#000000" fill-rule="nonzero" fill-opacity="1" /><path clip-path="url(#clip020)" d="M1977.84 214.388 L2007.51 214.388 L2007.51 218.277 L1977.84 218.277 L1977.84 214.388 M1977.84 223.832 L2007.51 223.832 L2007.51 227.768 L1977.84 227.768 L1977.84 223.832 Z" fill="#000000" fill-rule="nonzero" fill-opacity="1" /><path clip-path="url(#clip020)" d="M2018.41 231.981 L2026.05 231.981 L2026.05 205.615 L2017.74 207.282 L2017.74 203.022 L2026.01 201.356 L2030.68 201.356 L2030.68 231.981 L2038.32 231.981 L2038.32 235.916 L2018.41 235.916 L2018.41 231.981 Z" fill="#000000" fill-rule="nonzero" fill-opacity="1" /><path clip-path="url(#clip020)" d="M2047.77 230.036 L2052.65 230.036 L2052.65 235.916 L2047.77 235.916 L2047.77 230.036 Z" fill="#000000" fill-rule="nonzero" fill-opacity="1" /><path clip-path="url(#clip020)" d="M2072.83 204.434 Q2069.22 204.434 2067.39 207.999 Q2065.59 211.541 2065.59 218.67 Q2065.59 225.777 2067.39 229.342 Q2069.22 232.883 2072.83 232.883 Q2076.47 232.883 2078.27 229.342 Q2080.1 225.777 2080.1 218.67 Q2080.1 211.541 2078.27 207.999 Q2076.47 204.434 2072.83 204.434 M2072.83 200.731 Q2078.64 200.731 2081.7 205.337 Q2084.78 209.92 2084.78 218.67 Q2084.78 227.397 2081.7 232.004 Q2078.64 236.587 2072.83 236.587 Q2067.02 236.587 2063.95 232.004 Q2060.89 227.397 2060.89 218.67 Q2060.89 209.92 2063.95 205.337 Q2067.02 200.731 2072.83 200.731 Z" fill="#000000" fill-rule="nonzero" fill-opacity="1" /><path clip-path="url(#clip020)" d="M2093.48 230.036 L2098.37 230.036 L2098.37 234.018 L2094.57 241.425 L2091.58 241.425 L2093.48 234.018 L2093.48 230.036 Z" fill="#000000" fill-rule="nonzero" fill-opacity="1" /><path clip-path="url(#clip020)" d="M2132.58 213.37 Q2129.06 213.37 2127.16 215.916 Q2125.17 218.578 2125.17 222.976 Q2125.17 227.629 2127.14 230.314 Q2129.13 232.976 2132.58 232.976 Q2135.98 232.976 2137.97 230.291 Q2139.96 227.606 2139.96 222.976 Q2139.96 218.74 2137.97 215.916 Q2136.14 213.37 2132.58 213.37 M2132.58 209.99 L2146.72 209.99 L2146.72 214.249 L2141.95 214.249 Q2144.48 217.86 2144.48 222.976 Q2144.48 229.342 2141.31 232.953 Q2138.14 236.587 2132.58 236.587 Q2127 236.587 2123.85 232.953 Q2120.68 229.342 2120.68 222.976 Q2120.68 216.564 2123.85 212.976 Q2126.47 209.99 2132.58 209.99 Z" fill="#000000" fill-rule="nonzero" fill-opacity="1" /><path clip-path="url(#clip020)" d="M2153.14 214.388 L2182.81 214.388 L2182.81 218.277 L2153.14 218.277 L2153.14 214.388 M2153.14 223.832 L2182.81 223.832 L2182.81 227.768 L2153.14 227.768 L2153.14 223.832 Z" fill="#000000" fill-rule="nonzero" fill-opacity="1" /><path clip-path="url(#clip020)" d="M2202.9 204.434 Q2199.29 204.434 2197.46 207.999 Q2195.66 211.541 2195.66 218.67 Q2195.66 225.777 2197.46 229.342 Q2199.29 232.883 2202.9 232.883 Q2206.54 232.883 2208.34 229.342 Q2210.17 225.777 2210.17 218.67 Q2210.17 211.541 2208.34 207.999 Q2206.54 204.434 2202.9 204.434 M2202.9 200.731 Q2208.71 200.731 2211.77 205.337 Q2214.85 209.92 2214.85 218.67 Q2214.85 227.397 2211.77 232.004 Q2208.71 236.587 2202.9 236.587 Q2197.09 236.587 2194.01 232.004 Q2190.96 227.397 2190.96 218.67 Q2190.96 209.92 2194.01 205.337 Q2197.09 200.731 2202.9 200.731 Z" fill="#000000" fill-rule="nonzero" fill-opacity="1" /><path clip-path="url(#clip020)" d="M2223.07 230.036 L2227.95 230.036 L2227.95 235.916 L2223.07 235.916 L2223.07 230.036 Z" fill="#000000" fill-rule="nonzero" fill-opacity="1" /><path clip-path="url(#clip020)" d="M2238.18 201.356 L2256.54 201.356 L2256.54 205.291 L2242.46 205.291 L2242.46 213.763 Q2243.48 213.416 2244.5 213.254 Q2245.52 213.069 2246.54 213.069 Q2252.32 213.069 2255.7 216.24 Q2259.08 219.411 2259.08 224.828 Q2259.08 230.406 2255.61 233.508 Q2252.14 236.587 2245.82 236.587 Q2243.64 236.587 2241.38 236.217 Q2239.13 235.846 2236.72 235.106 L2236.72 230.406 Q2238.81 231.541 2241.03 232.096 Q2243.25 232.652 2245.73 232.652 Q2249.73 232.652 2252.07 230.545 Q2254.41 228.439 2254.41 224.828 Q2254.41 221.217 2252.07 219.11 Q2249.73 217.004 2245.73 217.004 Q2243.85 217.004 2241.98 217.42 Q2240.13 217.837 2238.18 218.717 L2238.18 201.356 Z" fill="#000000" fill-rule="nonzero" fill-opacity="1" /><polyline clip-path="url(#clip020)" style="stroke:#e26f46; stroke-linecap:round; stroke-linejoin:round; stroke-width:4; stroke-opacity:1; fill:none" points="1778.61,270.476 1917.77,270.476 "/>
<path clip-path="url(#clip020)" d="M1945.64 257.038 L1945.64 283.913 L1951.28 283.913 Q1958.44 283.913 1961.75 280.672 Q1965.08 277.432 1965.08 270.441 Q1965.08 263.497 1961.75 260.279 Q1958.44 257.038 1951.28 257.038 L1945.64 257.038 M1940.96 253.196 L1950.57 253.196 Q1960.61 253.196 1965.31 257.386 Q1970.01 261.552 1970.01 270.441 Q1970.01 279.376 1965.29 283.566 Q1960.57 287.756 1950.57 287.756 L1940.96 287.756 L1940.96 253.196 Z" fill="#000000" fill-rule="nonzero" fill-opacity="1" /><path clip-path="url(#clip020)" d="M1977.84 266.228 L2007.51 266.228 L2007.51 270.117 L1977.84 270.117 L1977.84 266.228 M1977.84 275.672 L2007.51 275.672 L2007.51 279.608 L1977.84 279.608 L1977.84 275.672 Z" fill="#000000" fill-rule="nonzero" fill-opacity="1" /><path clip-path="url(#clip020)" d="M2021.63 283.821 L2037.95 283.821 L2037.95 287.756 L2016.01 287.756 L2016.01 283.821 Q2018.67 281.066 2023.25 276.436 Q2027.86 271.784 2029.04 270.441 Q2031.28 267.918 2032.16 266.182 Q2033.07 264.423 2033.07 262.733 Q2033.07 259.978 2031.12 258.242 Q2029.2 256.506 2026.1 256.506 Q2023.9 256.506 2021.45 257.27 Q2019.02 258.034 2016.24 259.585 L2016.24 254.862 Q2019.06 253.728 2021.52 253.149 Q2023.97 252.571 2026.01 252.571 Q2031.38 252.571 2034.57 255.256 Q2037.77 257.941 2037.77 262.432 Q2037.77 264.561 2036.96 266.483 Q2036.17 268.381 2034.06 270.973 Q2033.48 271.645 2030.38 274.862 Q2027.28 278.057 2021.63 283.821 Z" fill="#000000" fill-rule="nonzero" fill-opacity="1" /><path clip-path="url(#clip020)" d="M2047.77 281.876 L2052.65 281.876 L2052.65 287.756 L2047.77 287.756 L2047.77 281.876 Z" fill="#000000" fill-rule="nonzero" fill-opacity="1" /><path clip-path="url(#clip020)" d="M2072.83 256.274 Q2069.22 256.274 2067.39 259.839 Q2065.59 263.381 2065.59 270.51 Q2065.59 277.617 2067.39 281.182 Q2069.22 284.723 2072.83 284.723 Q2076.47 284.723 2078.27 281.182 Q2080.1 277.617 2080.1 270.51 Q2080.1 263.381 2078.27 259.839 Q2076.47 256.274 2072.83 256.274 M2072.83 252.571 Q2078.64 252.571 2081.7 257.177 Q2084.78 261.76 2084.78 270.51 Q2084.78 279.237 2081.7 283.844 Q2078.64 288.427 2072.83 288.427 Q2067.02 288.427 2063.95 283.844 Q2060.89 279.237 2060.89 270.51 Q2060.89 261.76 2063.95 257.177 Q2067.02 252.571 2072.83 252.571 Z" fill="#000000" fill-rule="nonzero" fill-opacity="1" /><path clip-path="url(#clip020)" d="M2093.48 281.876 L2098.37 281.876 L2098.37 285.858 L2094.57 293.265 L2091.58 293.265 L2093.48 285.858 L2093.48 281.876 Z" fill="#000000" fill-rule="nonzero" fill-opacity="1" /><path clip-path="url(#clip020)" d="M2132.58 265.21 Q2129.06 265.21 2127.16 267.756 Q2125.17 270.418 2125.17 274.816 Q2125.17 279.469 2127.14 282.154 Q2129.13 284.816 2132.58 284.816 Q2135.98 284.816 2137.97 282.131 Q2139.96 279.446 2139.96 274.816 Q2139.96 270.58 2137.97 267.756 Q2136.14 265.21 2132.58 265.21 M2132.58 261.83 L2146.72 261.83 L2146.72 266.089 L2141.95 266.089 Q2144.48 269.7 2144.48 274.816 Q2144.48 281.182 2141.31 284.793 Q2138.14 288.427 2132.58 288.427 Q2127 288.427 2123.85 284.793 Q2120.68 281.182 2120.68 274.816 Q2120.68 268.404 2123.85 264.816 Q2126.47 261.83 2132.58 261.83 Z" fill="#000000" fill-rule="nonzero" fill-opacity="1" /><path clip-path="url(#clip020)" d="M2153.14 266.228 L2182.81 266.228 L2182.81 270.117 L2153.14 270.117 L2153.14 266.228 M2153.14 275.672 L2182.81 275.672 L2182.81 279.608 L2153.14 279.608 L2153.14 275.672 Z" fill="#000000" fill-rule="nonzero" fill-opacity="1" /><path clip-path="url(#clip020)" d="M2202.9 256.274 Q2199.29 256.274 2197.46 259.839 Q2195.66 263.381 2195.66 270.51 Q2195.66 277.617 2197.46 281.182 Q2199.29 284.723 2202.9 284.723 Q2206.54 284.723 2208.34 281.182 Q2210.17 277.617 2210.17 270.51 Q2210.17 263.381 2208.34 259.839 Q2206.54 256.274 2202.9 256.274 M2202.9 252.571 Q2208.71 252.571 2211.77 257.177 Q2214.85 261.76 2214.85 270.51 Q2214.85 279.237 2211.77 283.844 Q2208.71 288.427 2202.9 288.427 Q2197.09 288.427 2194.01 283.844 Q2190.96 279.237 2190.96 270.51 Q2190.96 261.76 2194.01 257.177 Q2197.09 252.571 2202.9 252.571 Z" fill="#000000" fill-rule="nonzero" fill-opacity="1" /><path clip-path="url(#clip020)" d="M2223.07 281.876 L2227.95 281.876 L2227.95 287.756 L2223.07 287.756 L2223.07 281.876 Z" fill="#000000" fill-rule="nonzero" fill-opacity="1" /><path clip-path="url(#clip020)" d="M2238.18 253.196 L2256.54 253.196 L2256.54 257.131 L2242.46 257.131 L2242.46 265.603 Q2243.48 265.256 2244.5 265.094 Q2245.52 264.909 2246.54 264.909 Q2252.32 264.909 2255.7 268.08 Q2259.08 271.251 2259.08 276.668 Q2259.08 282.246 2255.61 285.348 Q2252.14 288.427 2245.82 288.427 Q2243.64 288.427 2241.38 288.057 Q2239.13 287.686 2236.72 286.946 L2236.72 282.246 Q2238.81 283.381 2241.03 283.936 Q2243.25 284.492 2245.73 284.492 Q2249.73 284.492 2252.07 282.385 Q2254.41 280.279 2254.41 276.668 Q2254.41 273.057 2252.07 270.95 Q2249.73 268.844 2245.73 268.844 Q2243.85 268.844 2241.98 269.26 Q2240.13 269.677 2238.18 270.557 L2238.18 253.196 Z" fill="#000000" fill-rule="nonzero" fill-opacity="1" /><polyline clip-path="url(#clip020)" style="stroke:#3da44d; stroke-linecap:round; stroke-linejoin:round; stroke-width:4; stroke-opacity:1; fill:none" points="1778.61,322.316 1917.77,322.316 "/>
<path clip-path="url(#clip020)" d="M1945.64 308.878 L1945.64 335.753 L1951.28 335.753 Q1958.44 335.753 1961.75 332.512 Q1965.08 329.272 1965.08 322.281 Q1965.08 315.337 1961.75 312.119 Q1958.44 308.878 1951.28 308.878 L1945.64 308.878 M1940.96 305.036 L1950.57 305.036 Q1960.61 305.036 1965.31 309.226 Q1970.01 313.392 1970.01 322.281 Q1970.01 331.216 1965.29 335.406 Q1960.57 339.596 1950.57 339.596 L1940.96 339.596 L1940.96 305.036 Z" fill="#000000" fill-rule="nonzero" fill-opacity="1" /><path clip-path="url(#clip020)" d="M1977.84 318.068 L2007.51 318.068 L2007.51 321.957 L1977.84 321.957 L1977.84 318.068 M1977.84 327.512 L2007.51 327.512 L2007.51 331.448 L1977.84 331.448 L1977.84 327.512 Z" fill="#000000" fill-rule="nonzero" fill-opacity="1" /><path clip-path="url(#clip020)" d="M2018.41 335.661 L2026.05 335.661 L2026.05 309.295 L2017.74 310.962 L2017.74 306.702 L2026.01 305.036 L2030.68 305.036 L2030.68 335.661 L2038.32 335.661 L2038.32 339.596 L2018.41 339.596 L2018.41 335.661 Z" fill="#000000" fill-rule="nonzero" fill-opacity="1" /><path clip-path="url(#clip020)" d="M2047.77 333.716 L2052.65 333.716 L2052.65 339.596 L2047.77 339.596 L2047.77 333.716 Z" fill="#000000" fill-rule="nonzero" fill-opacity="1" /><path clip-path="url(#clip020)" d="M2072.83 308.114 Q2069.22 308.114 2067.39 311.679 Q2065.59 315.221 2065.59 322.35 Q2065.59 329.457 2067.39 333.022 Q2069.22 336.563 2072.83 336.563 Q2076.47 336.563 2078.27 333.022 Q2080.1 329.457 2080.1 322.35 Q2080.1 315.221 2078.27 311.679 Q2076.47 308.114 2072.83 308.114 M2072.83 304.411 Q2078.64 304.411 2081.7 309.017 Q2084.78 313.6 2084.78 322.35 Q2084.78 331.077 2081.7 335.684 Q2078.64 340.267 2072.83 340.267 Q2067.02 340.267 2063.95 335.684 Q2060.89 331.077 2060.89 322.35 Q2060.89 313.6 2063.95 309.017 Q2067.02 304.411 2072.83 304.411 Z" fill="#000000" fill-rule="nonzero" fill-opacity="1" /><path clip-path="url(#clip020)" d="M2093.48 333.716 L2098.37 333.716 L2098.37 337.698 L2094.57 345.105 L2091.58 345.105 L2093.48 337.698 L2093.48 333.716 Z" fill="#000000" fill-rule="nonzero" fill-opacity="1" /><path clip-path="url(#clip020)" d="M2132.58 317.05 Q2129.06 317.05 2127.16 319.596 Q2125.17 322.258 2125.17 326.656 Q2125.17 331.309 2127.14 333.994 Q2129.13 336.656 2132.58 336.656 Q2135.98 336.656 2137.97 333.971 Q2139.96 331.286 2139.96 326.656 Q2139.96 322.42 2137.97 319.596 Q2136.14 317.05 2132.58 317.05 M2132.58 313.67 L2146.72 313.67 L2146.72 317.929 L2141.95 317.929 Q2144.48 321.54 2144.48 326.656 Q2144.48 333.022 2141.31 336.633 Q2138.14 340.267 2132.58 340.267 Q2127 340.267 2123.85 336.633 Q2120.68 333.022 2120.68 326.656 Q2120.68 320.244 2123.85 316.656 Q2126.47 313.67 2132.58 313.67 Z" fill="#000000" fill-rule="nonzero" fill-opacity="1" /><path clip-path="url(#clip020)" d="M2153.14 318.068 L2182.81 318.068 L2182.81 321.957 L2153.14 321.957 L2153.14 318.068 M2153.14 327.512 L2182.81 327.512 L2182.81 331.448 L2153.14 331.448 L2153.14 327.512 Z" fill="#000000" fill-rule="nonzero" fill-opacity="1" /><path clip-path="url(#clip020)" d="M2202.9 308.114 Q2199.29 308.114 2197.46 311.679 Q2195.66 315.221 2195.66 322.35 Q2195.66 329.457 2197.46 333.022 Q2199.29 336.563 2202.9 336.563 Q2206.54 336.563 2208.34 333.022 Q2210.17 329.457 2210.17 322.35 Q2210.17 315.221 2208.34 311.679 Q2206.54 308.114 2202.9 308.114 M2202.9 304.411 Q2208.71 304.411 2211.77 309.017 Q2214.85 313.6 2214.85 322.35 Q2214.85 331.077 2211.77 335.684 Q2208.71 340.267 2202.9 340.267 Q2197.09 340.267 2194.01 335.684 Q2190.96 331.077 2190.96 322.35 Q2190.96 313.6 2194.01 309.017 Q2197.09 304.411 2202.9 304.411 Z" fill="#000000" fill-rule="nonzero" fill-opacity="1" /><path clip-path="url(#clip020)" d="M2223.07 333.716 L2227.95 333.716 L2227.95 339.596 L2223.07 339.596 L2223.07 333.716 Z" fill="#000000" fill-rule="nonzero" fill-opacity="1" /><path clip-path="url(#clip020)" d="M2248.13 323.184 Q2244.8 323.184 2242.88 324.966 Q2240.98 326.749 2240.98 329.874 Q2240.98 332.999 2242.88 334.781 Q2244.8 336.563 2248.13 336.563 Q2251.47 336.563 2253.39 334.781 Q2255.31 332.975 2255.31 329.874 Q2255.31 326.749 2253.39 324.966 Q2251.49 323.184 2248.13 323.184 M2243.46 321.193 Q2240.45 320.452 2238.76 318.392 Q2237.09 316.332 2237.09 313.369 Q2237.09 309.226 2240.03 306.818 Q2243 304.411 2248.13 304.411 Q2253.3 304.411 2256.24 306.818 Q2259.18 309.226 2259.18 313.369 Q2259.18 316.332 2257.49 318.392 Q2255.82 320.452 2252.83 321.193 Q2256.21 321.98 2258.09 324.272 Q2259.99 326.563 2259.99 329.874 Q2259.99 334.897 2256.91 337.582 Q2253.85 340.267 2248.13 340.267 Q2242.42 340.267 2239.34 337.582 Q2236.28 334.897 2236.28 329.874 Q2236.28 326.563 2238.18 324.272 Q2240.08 321.98 2243.46 321.193 M2241.75 313.809 Q2241.75 316.494 2243.41 317.999 Q2245.1 319.503 2248.13 319.503 Q2251.14 319.503 2252.83 317.999 Q2254.55 316.494 2254.55 313.809 Q2254.55 311.124 2252.83 309.619 Q2251.14 308.114 2248.13 308.114 Q2245.1 308.114 2243.41 309.619 Q2241.75 311.124 2241.75 313.809 Z" fill="#000000" fill-rule="nonzero" fill-opacity="1" /></svg>
